<svg width="50" height="24" viewBox="0 0 50 24" fill="none" xmlns="http://www.w3.org/2000/svg">
<path d="M0 12C0 5.37258 5.37258 0 12 0H38C44.6274 0 50 5.37258 50 12C50 18.6274 44.6274 24 38 24H12C5.37258 24 0 18.6274 0 12Z" fill="url(#paint0_linear_1589_100)"/>
<rect x="28" y="2" width="20" height="20" rx="10" fill="#FAFAFA"/>
<path d="M38 6C37.1667 6 36.3854 6.15625 35.6562 6.46875C34.9479 6.78125 34.3125 7.21875 33.75 7.78125C33.2083 8.32292 32.7812 8.95833 32.4688 9.6875C32.1562 10.3958 32 11.1667 32 12C32 12.8333 32.1562 13.6146 32.4688 14.3438C32.7812 15.0521 33.2083 15.6875 33.75 16.25C34.3125 16.7917 34.9479 17.2188 35.6562 17.5312C36.3854 17.8438 37.1667 18 38 18C38.8333 18 39.6042 17.8438 40.3125 17.5312C41.0417 17.2188 41.6771 16.7917 42.2188 16.25C42.7812 15.6875 43.2188 15.0521 43.5312 14.3438C43.8438 13.6146 44 12.8333 44 12C44 11.8542 43.9896 11.7083 43.9688 11.5625C43.9688 11.3958 43.9583 11.2396 43.9375 11.0938C43.6042 11.5521 43.1771 11.9167 42.6562 12.1875C42.1562 12.4583 41.6042 12.5938 41 12.5938C40.3333 12.5938 39.7292 12.4375 39.1875 12.125C38.6458 11.7917 38.2083 11.3542 37.875 10.8125C37.5625 10.2708 37.4062 9.66667 37.4062 9C37.4062 8.39583 37.5417 7.84375 37.8125 7.34375C38.0833 6.82292 38.4479 6.39583 38.9062 6.0625C38.7604 6.04167 38.6042 6.03125 38.4375 6.03125C38.2917 6.01042 38.1458 6 38 6Z" fill="#222222"/>
<defs>
<linearGradient id="paint0_linear_1589_100" x1="50" y1="11.5" x2="6.49575e-07" y2="12" gradientUnits="userSpaceOnUse">
<stop stop-color="#222222"/>
<stop offset="0.0001" stop-color="#111111"/>
<stop offset="1" stop-color="#2E2E2E"/>
</linearGradient>
</defs>
</svg>
