<svg width="20" height="20" viewBox="0 0 20 20" fill="none" xmlns="http://www.w3.org/2000/svg">
<rect width="20" height="20" rx="10" fill="#226ED8"/>
<path d="M10 5.34375C11.4792 5.34375 12.7396 5.86458 13.7812 6.90625C14.8229 7.94792 15.3438 9.19792 15.3438 10.6562C15.3438 12.1354 14.8125 13.3958 13.75 14.4375C12.7083 15.4792 11.4583 16 10 16C8.54167 16 7.28125 15.4792 6.21875 14.4375C5.17708 13.3958 4.65625 12.1354 4.65625 10.6562H6C6 11.7604 6.38542 12.7083 7.15625 13.5C7.94792 14.2708 8.89583 14.6562 10 14.6562C11.1042 14.6562 12.0417 14.2708 12.8125 13.5C13.6042 12.7083 14 11.7604 14 10.6562C14 9.55208 13.6042 8.61458 12.8125 7.84375C12.0417 7.05208 11.1042 6.65625 10 6.65625V9.34375L6.65625 6L10 2.65625V5.34375Z" fill="white"/>
</svg>
