<svg width="24" height="24" viewBox="0 0 24 24" fill="none" xmlns="http://www.w3.org/2000/svg">
<path d="M12 0.75C10.4375 0.75 8.97266 1.04297 7.60547 1.62891C6.27734 2.21484 5.08594 3.03516 4.03125 4.08984C3.01562 5.10547 2.21484 6.29688 1.62891 7.66406C1.04297 8.99219 0.75 10.4375 0.75 12C0.75 13.5625 1.04297 15.0273 1.62891 16.3945C2.21484 17.7227 3.01562 18.9141 4.03125 19.9688C5.08594 20.9844 6.27734 21.7852 7.60547 22.3711C8.97266 22.957 10.4375 23.25 12 23.25C13.5625 23.25 15.0078 22.957 16.3359 22.3711C17.7031 21.7852 18.8945 20.9844 19.9102 19.9688C20.9648 18.9141 21.7852 17.7227 22.3711 16.3945C22.957 15.0273 23.25 13.5625 23.25 12C23.25 11.7266 23.2305 11.4531 23.1914 11.1797C23.1914 10.8672 23.1719 10.5742 23.1328 10.3008C22.5078 11.1602 21.707 11.8437 20.7305 12.3516C19.793 12.8594 18.7578 13.1133 17.625 13.1133C16.375 13.1133 15.2422 12.8203 14.2266 12.2344C13.2109 11.6094 12.3906 10.7891 11.7656 9.77344C11.1797 8.75781 10.8867 7.625 10.8867 6.375C10.8867 5.24219 11.1406 4.20703 11.6484 3.26953C12.1563 2.29297 12.8398 1.49219 13.6992 0.867188C13.4258 0.828125 13.1328 0.808594 12.8203 0.808594C12.5469 0.769531 12.2734 0.75 12 0.75Z" fill="black"/>
</svg>
