<svg width="177" height="421" viewBox="0 0 177 421" fill="none" xmlns="http://www.w3.org/2000/svg">
<path d="M92.8693 36.7007L90.5747 34.7656C89.8855 31.2681 89.0104 27.8386 88.2181 25.4607C87.8065 24.2214 84.9844 17.5366 75.3958 16.8489C67.2907 16.2676 61.2545 21.4236 58.2579 28.1905C56.9099 31.2351 56.5979 34.635 57.2231 37.9051C58.8076 46.1912 63.3085 68.4734 63.3085 68.4734C63.3085 68.4734 64.0792 78.9712 77.2067 76.2919C88.235 74.0419 85.4648 64.5022 85.4648 64.5022L83.5117 54.7391C87.9581 52.9709 90.4406 50.6213 91.464 47.7132C92.0507 46.0533 91.8325 42.4825 91.2329 38.5282L92.8592 37.7981C93.2526 37.5404 93.2587 36.9658 92.8693 36.7007Z" fill="#FDFDFD" stroke="black" stroke-width="1.5" stroke-linecap="round" stroke-linejoin="round"/>
<path d="M99.7928 11.3277C98.4932 4.95378 92.2643 0.841999 85.8824 2.14598C84.3121 2.46289 82.8825 3.08595 81.6301 3.93173C79.3012 1.24705 75.6309 -0.14507 71.9021 0.618615C67.9145 1.4294 64.9618 4.47203 64.0503 8.17337C63.7033 8.22653 63.3564 8.28506 63.0094 8.35571C52.8576 10.4234 46.3053 20.3277 48.3756 30.4669C48.6033 31.5791 48.9287 32.6463 49.3349 33.6656C50.8042 38.6171 54.9669 51.1853 59.9967 53.5645C64.9186 55.8932 71.7262 53.3162 75.4794 50.6706C79.2325 48.0243 78.7912 41.1336 78.7912 41.1336L77.9862 37.1611L78.0185 37.1645L81.4408 36.4479L80.3622 31.45C84.2009 30.1628 82.8212 24.7053 82.8212 24.7053L87.5128 23.5796C87.7344 24.0863 87.9722 24.7214 88.2181 25.4623C89.0063 25.4683 89.8006 25.3916 90.6003 25.2274C96.9821 23.9234 101.099 17.7023 99.7934 11.3284L99.7928 11.3277Z" fill="black"/>
<path d="M89.1337 31.5731L89.1236 31.4856C89.1289 31.351 89.1007 31.2259 89.0393 31.1095C89.0003 30.9884 88.9329 30.8841 88.8372 30.7953C88.749 30.7004 88.6439 30.6331 88.5226 30.5934C88.4061 30.5322 88.2808 30.5046 88.146 30.5093L87.8867 30.5443C87.7209 30.5907 87.5774 30.6742 87.4555 30.7953L87.3026 30.9924C87.2143 31.1445 87.1699 31.3086 87.1692 31.4849L87.1793 31.5724C87.1739 31.707 87.2022 31.8321 87.2635 31.9485C87.3026 32.0696 87.3699 32.1739 87.4656 32.2628C87.5539 32.3576 87.659 32.4249 87.7802 32.4646C87.8968 32.5258 88.0221 32.5534 88.1568 32.5487L88.4162 32.5137C88.5819 32.4673 88.7254 32.3839 88.8473 32.2628L89.0003 32.0656C89.0885 31.9135 89.133 31.7494 89.1337 31.5731Z" fill="black"/>
<path d="M88.5125 26.9614C88.5125 26.9614 85.2438 27.7096 84.9885 30.3459" stroke="black" stroke-width="1.5" stroke-linecap="round" stroke-linejoin="round"/>
<path d="M80.5354 42.6057C77.78 43.1675 75.0839 41.3623 74.514 38.5733C73.9683 35.9041 75.5703 33.3069 78.1236 32.5957" fill="#FDFDFD"/>
<path d="M80.5354 42.6057C77.78 43.1675 75.0839 41.3623 74.514 38.5733C73.9683 35.9041 75.5703 33.3069 78.1236 32.5957" stroke="black" stroke-width="1.5" stroke-linecap="round" stroke-linejoin="round"/>
<path d="M79.122 55.0523C81.6888 55.4654 83.5144 54.7388 83.5144 54.7388" stroke="black" stroke-width="1.5" stroke-linecap="round" stroke-linejoin="round"/>
<path d="M84.628 60.3446L78.9152 55.3211L83.5522 54.8252L84.628 60.3446Z" fill="black"/>
<path d="M85.747 41.5327C85.747 41.5327 86.9967 43.9556 90.1583 42.8542" stroke="black" stroke-width="1.5" stroke-linecap="round" stroke-linejoin="round"/>
<path d="M55.0221 398.478L54.5337 419.696H100.63C100.63 419.696 107.29 409.251 91.9611 407.976C82.2492 407.168 84.9662 397.468 84.9662 397.468" fill="black"/>
<path d="M98.7101 160.106L94.4463 401.929L47.3798 401.988L42.2753 164.808" fill="#1B82FB"/>
<path d="M83.5845 221.812L82.5497 401.988" stroke="#FDFDFD" stroke-width="1.5" stroke-linecap="round" stroke-linejoin="round"/>
<path d="M97.905 193.42L94.4463 401.929L47.3798 401.988L42.4323 164.614" stroke="black" stroke-width="1.5" stroke-linecap="round" stroke-linejoin="round"/>
<path d="M39.2019 392.485C39.2019 392.485 32.971 398.685 39.6075 405.813C50.0827 417.064 38.374 420.11 38.374 420.11L0.304565 388.91L13.2468 373.098" fill="black"/>
<path d="M130.978 294.092L43.0898 400.346L5.54785 372.135L91.8203 268.021L72.8216 162.18L119.114 158.477L138.665 263.554C140.338 274.297 137.537 285.42 130.979 294.092L130.978 294.092Z" fill="#1B82FB"/>
<path d="M108.439 159.258L126.679 263.866C127.722 270.941 125.856 278.135 121.505 283.814L31.1238 391.394" stroke="#FDFDFD" stroke-width="1.5" stroke-linecap="round" stroke-linejoin="round"/>
<path d="M42.4322 164.614L119.22 158.464L138.649 263.475C140.355 274.267 137.542 285.449 130.933 294.154L43.0365 400.418L5.60309 372.062L91.8048 268.029L77.2774 192.17" stroke="black" stroke-width="1.5" stroke-linecap="round" stroke-linejoin="round"/>
<path d="M115.013 49.9864C115.026 50.1492 112.745 51.8011 109.769 50.4809C109.908 50.3995 110.033 50.2804 110.145 50.1183C110.565 49.5241 112.407 49.0733 114.092 48.7793C114.624 49.399 115.007 49.8734 115.013 49.9864Z" fill="#FDFDFD" stroke="black" stroke-width="1.5" stroke-linecap="round" stroke-linejoin="round"/>
<path d="M114.092 48.7787C112.407 49.0727 110.565 49.5235 110.145 50.1176C110.033 50.2805 109.908 50.3989 109.769 50.4803C109.494 50.3551 109.212 50.2111 108.924 50.0295C108.498 49.7664 108.06 49.4414 107.615 49.035C107.471 48.9038 107.327 48.7719 107.189 48.6468C108.26 47.8272 110.384 47.1638 112.182 46.7197" fill="#FDFDFD"/>
<path d="M114.092 48.7787C112.407 49.0727 110.565 49.5235 110.145 50.1176C110.033 50.2805 109.908 50.3989 109.769 50.4803C109.494 50.3551 109.212 50.2111 108.924 50.0295C108.498 49.7664 108.06 49.4414 107.615 49.035C107.471 48.9038 107.327 48.7719 107.189 48.6468C108.26 47.8272 110.384 47.1638 112.182 46.7197" stroke="black" stroke-width="1.5" stroke-linecap="round" stroke-linejoin="round"/>
<path d="M112.181 46.7202C110.383 47.1643 108.26 47.8277 107.188 48.6472C106.299 47.8398 105.578 47.2147 104.921 46.8265C105.942 45.4815 107.769 44.6236 109.159 44.2104" fill="#FDFDFD"/>
<path d="M112.181 46.7202C110.383 47.1643 108.26 47.8277 107.188 48.6472C106.299 47.8398 105.578 47.2147 104.921 46.8265C105.942 45.4815 107.769 44.6236 109.159 44.2104" stroke="black" stroke-width="1.5" stroke-linecap="round" stroke-linejoin="round"/>
<path d="M101.433 38.4913C103.692 37.9066 110.117 39.3855 116.935 44.0867C120.648 46.6469 134.725 62.2113 137.632 65.4416L138.364 66.0041L116.579 70.7874C116.579 70.7874 108.089 55.7882 106.442 53.7919C103.549 50.283 100.916 47.2746 102.503 46.5702C104.09 45.8657 105.318 46.9362 107.618 49.0362C111.567 52.644 115.032 50.1861 115.013 49.9849C114.98 49.6498 112.711 46.9315 110.628 45.2924C107.68 42.9738 105.332 41.986 101.544 40.4439C100.576 40.0496 100.78 38.6615 101.434 38.4926L101.433 38.4913Z" fill="#FDFDFD" stroke="black" stroke-width="1.5" stroke-linecap="round" stroke-linejoin="round"/>
<path d="M173.159 111.005C173.119 110.94 173.081 110.874 173.04 110.808C172.953 110.67 172.86 110.534 172.768 110.397C172.674 110.256 172.586 110.111 172.487 109.973L132.954 54.3286L121.88 61.6829L110.746 68.9597L112.327 70.7091C112.327 70.7091 110.907 69.8614 108.64 68.227C102.413 63.7371 97.8781 61.9009 90.3038 63.0945L50.018 67.03C50.018 67.03 47.5564 67.2742 44.4992 68.6193C42.3757 69.4328 40.4085 70.7091 38.7674 72.4108C37.3958 73.7309 36.1239 75.3767 35.1214 77.4101L22.8475 112.465C22.0566 114.723 21.0744 116.905 20.0753 119.079C18.0057 123.583 18.1661 128.812 20.5118 133.179C21.8073 135.591 42.1817 159.809 42.1817 159.809C42.2315 159.878 42.4323 164.613 42.4323 164.613L119.221 158.464C118.351 138.318 116.996 123.155 116.588 113.149C128.773 120.779 147.315 132.193 151.472 133.654C153.727 134.447 156.096 134.834 158.433 134.841C161.995 135.131 165.674 134.228 168.817 132.002C175.604 127.192 177.422 117.998 173.159 111.006V111.005Z" fill="#FDFDFF"/>
<path d="M42.1817 159.809C42.1817 159.809 21.8073 135.591 20.5118 133.179C18.1661 128.812 18.0057 123.583 20.0753 119.079C21.0744 116.905 22.0566 114.723 22.8475 112.465L35.1214 77.4101C36.1239 75.3767 37.3958 73.7309 38.7674 72.4108C40.4085 70.7091 42.3757 69.4328 44.4992 68.6193C47.5564 67.2742 50.018 67.03 50.018 67.03L90.3038 63.0945C96.9767 62.1478 101.813 63.5514 105.318 65.9824C105.819 66.3296 112.327 70.7091 112.327 70.7091L110.746 68.9597L121.88 61.6829L132.954 54.3286L172.487 109.973C172.586 110.111 172.674 110.256 172.768 110.397C172.86 110.534 172.953 110.67 173.04 110.808C173.081 110.874 173.119 110.94 173.159 111.005V111.006C177.422 117.998 175.604 127.192 168.817 132.002C165.674 134.228 161.995 135.131 158.433 134.841C156.096 134.834 153.727 134.447 151.472 133.654C147.315 132.193 128.773 120.779 116.588 113.149C116.996 123.155 118.351 138.318 119.221 158.464L42.4323 164.613L42.1817 159.809ZM42.1817 159.809C42.119 159.741 42.2315 159.878 42.1817 159.809Z" stroke="black" stroke-width="1.5" stroke-linecap="round" stroke-linejoin="round"/>
<path d="M42.4322 164.614L40.3964 110.376" stroke="black" stroke-width="1.5" stroke-linecap="round" stroke-linejoin="round"/>
<path d="M105.652 106.25C105.652 106.25 110.265 109.19 116.588 113.149" stroke="black" stroke-width="1.5" stroke-linecap="round" stroke-linejoin="round"/>
<path d="M156.092 101.49L110.727 69.585" stroke="black" stroke-width="1.5" stroke-linecap="round" stroke-linejoin="round"/>
<path d="M137.045 60.0967L116.763 73.6593" stroke="black" stroke-width="1.5" stroke-linecap="round" stroke-linejoin="round"/>
</svg>
