<svg width="28" height="28" viewBox="0 0 28 28" fill="none" xmlns="http://www.w3.org/2000/svg">
<path d="M14 7.73047C12.8672 7.73047 11.8125 8.02344 10.8359 8.60938C9.89844 9.15625 9.13672 9.91797 8.55078 10.8945C8.00391 11.832 7.73047 12.8672 7.73047 14C7.73047 15.1328 8.00391 16.1875 8.55078 17.1641C9.13672 18.1016 9.89844 18.8633 10.8359 19.4492C11.8125 19.9961 12.8672 20.2695 14 20.2695C15.1328 20.2695 16.168 19.9961 17.1055 19.4492C18.082 18.8633 18.8438 18.1016 19.3906 17.1641C19.9766 16.1875 20.2695 15.1328 20.2695 14C20.2695 12.8672 19.9766 11.832 19.3906 10.8945C18.8438 9.91797 18.082 9.15625 17.1055 8.60938C16.168 8.02344 15.1328 7.73047 14 7.73047ZM1.51953 15.2305H3.98047C4.33203 15.2305 4.625 15.1133 4.85938 14.8789C5.13281 14.6445 5.26953 14.3516 5.26953 14C5.26953 13.6484 5.13281 13.3555 4.85938 13.1211C4.625 12.8867 4.33203 12.7695 3.98047 12.7695H1.51953C1.16797 12.7695 0.855469 12.8867 0.582031 13.1211C0.347656 13.3555 0.230469 13.6484 0.230469 14C0.230469 14.3516 0.347656 14.6445 0.582031 14.8789C0.855469 15.1133 1.16797 15.2305 1.51953 15.2305ZM24.0195 15.2305H26.4805C26.832 15.2305 27.125 15.1133 27.3594 14.8789C27.6328 14.6445 27.7695 14.3516 27.7695 14C27.7695 13.6484 27.6328 13.3555 27.3594 13.1211C27.125 12.8867 26.832 12.7695 26.4805 12.7695H24.0195C23.668 12.7695 23.3555 12.8867 23.082 13.1211C22.8477 13.3555 22.7305 13.6484 22.7305 14C22.7305 14.3516 22.8477 14.6445 23.082 14.8789C23.3555 15.1133 23.668 15.2305 24.0195 15.2305ZM12.7695 1.51953V3.98047C12.7695 4.33203 12.8867 4.64453 13.1211 4.91797C13.3555 5.15234 13.6484 5.26953 14 5.26953C14.3516 5.26953 14.6445 5.15234 14.8789 4.91797C15.1133 4.64453 15.2305 4.33203 15.2305 3.98047V1.51953C15.2305 1.16797 15.1133 0.875 14.8789 0.640625C14.6445 0.367187 14.3516 0.230469 14 0.230469C13.6484 0.230469 13.3555 0.367187 13.1211 0.640625C12.8867 0.875 12.7695 1.16797 12.7695 1.51953ZM12.7695 24.0195V26.4805C12.7695 26.832 12.8867 27.1445 13.1211 27.418C13.3555 27.6523 13.6484 27.7695 14 27.7695C14.3516 27.7695 14.6445 27.6523 14.8789 27.418C15.1133 27.1445 15.2305 26.832 15.2305 26.4805V24.0195C15.2305 23.668 15.1133 23.375 14.8789 23.1406C14.6445 22.8672 14.3516 22.7305 14 22.7305C13.6484 22.7305 13.3555 22.8672 13.1211 23.1406C12.8867 23.375 12.7695 23.668 12.7695 24.0195ZM6.5 4.74219C6.26562 4.46875 5.97266 4.33203 5.62109 4.33203C5.26953 4.33203 4.97656 4.46875 4.74219 4.74219C4.46875 4.97656 4.33203 5.26953 4.33203 5.62109C4.33203 5.97266 4.46875 6.26562 4.74219 6.5L6.03125 7.78906C6.30469 8.0625 6.59766 8.19922 6.91016 8.19922C7.26172 8.19922 7.55469 8.0625 7.78906 7.78906C8.02344 7.55469 8.14062 7.26172 8.14062 6.91016C8.17969 6.55859 8.0625 6.26562 7.78906 6.03125L6.5 4.74219ZM21.9688 20.2109C21.6953 19.9375 21.3828 19.8008 21.0312 19.8008C20.7188 19.8008 20.4453 19.9375 20.2109 20.2109C19.9375 20.4453 19.8008 20.7383 19.8008 21.0898C19.8008 21.4414 19.9375 21.7344 20.2109 21.9688L21.5 23.2578C21.7344 23.5312 22.0273 23.668 22.3789 23.668C22.7305 23.668 23.0234 23.5312 23.2578 23.2578C23.5312 23.0234 23.668 22.7305 23.668 22.3789C23.668 22.0273 23.5312 21.7344 23.2578 21.5L21.9688 20.2109ZM23.2578 6.5C23.5312 6.26562 23.668 5.97266 23.668 5.62109C23.668 5.26953 23.5312 4.97656 23.2578 4.74219C23.0234 4.46875 22.7305 4.33203 22.3789 4.33203C22.0273 4.33203 21.7344 4.46875 21.5 4.74219L20.2109 6.03125C19.9375 6.30469 19.8008 6.61719 19.8008 6.96875C19.8008 7.28125 19.9375 7.55469 20.2109 7.78906C20.4453 8.02344 20.7383 8.16016 21.0898 8.19922C21.4414 8.19922 21.7344 8.0625 21.9688 7.78906L23.2578 6.5ZM7.78906 21.9688C8.0625 21.6953 8.19922 21.4023 8.19922 21.0898C8.19922 20.7383 8.0625 20.4453 7.78906 20.2109C7.55469 19.9375 7.26172 19.8008 6.91016 19.8008C6.55859 19.8008 6.26562 19.9375 6.03125 20.2109L4.74219 21.5C4.46875 21.7344 4.33203 22.0273 4.33203 22.3789C4.33203 22.7305 4.46875 23.0234 4.74219 23.2578C4.97656 23.4922 5.26953 23.6289 5.62109 23.668C5.97266 23.668 6.26562 23.5312 6.5 23.2578L7.78906 21.9688Z" fill="black"/>
</svg>
