<svg width="6" height="22" viewBox="0 0 6 22" fill="none" xmlns="http://www.w3.org/2000/svg">
<path d="M1.24219 16.7422C1.75 16.2344 2.33594 15.9805 3 15.9805C3.66406 15.9805 4.25 16.2344 4.75781 16.7422C5.26562 17.25 5.51953 17.8359 5.51953 18.5C5.51953 19.1641 5.26562 19.75 4.75781 20.2578C4.25 20.7656 3.66406 21.0195 3 21.0195C2.33594 21.0195 1.75 20.7656 1.24219 20.2578C0.734375 19.75 0.480469 19.1641 0.480469 18.5C0.480469 17.8359 0.734375 17.25 1.24219 16.7422ZM1.24219 9.24219C1.75 8.73437 2.33594 8.48047 3 8.48047C3.66406 8.48047 4.25 8.73437 4.75781 9.24219C5.26562 9.75 5.51953 10.3359 5.51953 11C5.51953 11.6641 5.26562 12.25 4.75781 12.7578C4.25 13.2656 3.66406 13.5195 3 13.5195C2.33594 13.5195 1.75 13.2656 1.24219 12.7578C0.734375 12.25 0.480469 11.6641 0.480469 11C0.480469 10.3359 0.734375 9.75 1.24219 9.24219ZM4.75781 5.25781C4.25 5.76563 3.66406 6.01953 3 6.01953C2.33594 6.01953 1.75 5.76563 1.24219 5.25781C0.734375 4.75 0.480469 4.16406 0.480469 3.5C0.480469 2.83594 0.734375 2.25 1.24219 1.74219C1.75 1.23437 2.33594 0.980469 3 0.980469C3.66406 0.980469 4.25 1.23437 4.75781 1.74219C5.26562 2.25 5.51953 2.83594 5.51953 3.5C5.51953 4.16406 5.26562 4.75 4.75781 5.25781Z" fill="black"/>
</svg>
