<svg width="157" height="419" viewBox="0 0 157 419" fill="none" xmlns="http://www.w3.org/2000/svg">
<path d="M60.0498 364.366L61.1802 400.077H83.9509L84.9405 364.81L60.0498 364.366Z" fill="#FFFDFD" stroke="black" stroke-width="1.5" stroke-linecap="round" stroke-linejoin="round"/>
<path d="M85.6222 418.11H77.3918C76.5935 416.267 75.1208 414.037 75.1208 414.037L72.4927 418.11H39.0058C39.0058 418.11 34.8767 407.333 48.108 406.751C62.0924 406.136 60.1441 388.916 60.1441 388.916H70.1806L73.2594 395.394L76.7296 388.916H84.8805L85.6222 418.11Z" fill="#1B82FB" stroke="black" stroke-width="1.5" stroke-linecap="round" stroke-linejoin="round"/>
<path d="M121.972 363.732L123.736 400.077H146.507L146.863 364.81L121.972 363.732Z" fill="#FFFDFD" stroke="black" stroke-width="1.5" stroke-linecap="round" stroke-linejoin="round"/>
<path d="M148.179 418.11H139.948C139.15 416.267 137.677 414.037 137.677 414.037L135.049 418.11H100.928C100.928 418.11 96.7994 407.333 110.031 406.751C124.015 406.136 122.701 388.916 122.701 388.916H132.737L135.816 395.394L139.286 388.916H147.437L148.179 418.11Z" fill="#1B82FB" stroke="black" stroke-width="1.5" stroke-linecap="round" stroke-linejoin="round"/>
<path d="M65.1542 156.236L39.1668 249.51C38.3024 252.907 38.1636 256.447 38.7598 259.901L47.1917 378.816L91.7009 378.418L85.117 256.658L96.763 218.311L108.044 378.83L152.075 378.275L141.323 156.147L65.1549 156.236H65.1542Z" fill="#FCFCFC"/>
<path d="M96.7623 218.311L94.2811 188.46" stroke="black" stroke-width="1.5" stroke-linecap="round" stroke-linejoin="round"/>
<path d="M65.1542 156.237L39.1668 249.51C38.3024 252.907 38.1636 256.447 38.7598 259.901L47.1917 378.816L91.7009 378.418L85.117 256.658L96.763 218.311L108.044 378.83L152.075 378.275L140.718 156.193L65.1549 156.237H65.1542Z" stroke="black" stroke-width="1.5" stroke-linecap="round" stroke-linejoin="round"/>
<path d="M118.542 45.957L156.08 114.168L118.791 121.912L114.777 46.7389" fill="#1B82FB"/>
<path d="M118.542 45.957L156.08 114.168L118.791 121.912L114.777 46.7389" stroke="black" stroke-width="1.5" stroke-linecap="round" stroke-linejoin="round"/>
<path d="M123.782 23.3754C121.031 10.166 112.101 1.0812 98.8535 1.05765C85.6054 1.0341 74.9672 12.5311 74.943 26.0231L91.5999 25.1242L107.68 52.0523C107.68 52.0523 128.839 47.6572 123.782 23.3754Z" fill="#1B82FB" stroke="black" stroke-width="1.5" stroke-linecap="round" stroke-linejoin="round"/>
<path d="M120.636 49.7617L114.972 52.9423L113.449 49.7584C113.449 49.7584 114.925 48.9402 115.996 48.1334C117.7 46.8503 118.71 45.8794 118.71 45.8794L120.636 49.7617Z" fill="#050505" stroke="black" stroke-width="1.5" stroke-linecap="round" stroke-linejoin="round"/>
<path d="M112.424 39.7546C115.267 39.7109 117.53 37.3317 117.48 34.4411C117.431 31.675 115.28 29.4479 112.604 29.2999C110.484 19.9997 102.793 13.0068 93.0349 13.1582C85.6977 13.2719 83.0899 17.2686 79.6224 23.2529C77.788 26.4194 78.3188 44.9887 80.7933 48.9733C82.4479 51.6378 85.4101 53.4256 90.1838 54.2094L90.4156 65.0262C90.4156 65.0262 89.7904 75.4695 101.155 74.9204C112.682 74.364 112.568 64.2504 112.568 64.2504C112.568 64.2504 112.234 41.1487 112.327 39.7512C112.36 39.7512 112.391 39.7553 112.424 39.7546Z" fill="#FFFDFD" stroke="black" stroke-width="1.5" stroke-linecap="round" stroke-linejoin="round"/>
<path d="M99.8653 52.2446L90.3899 62.9948L90.1831 54.2094C90.1831 54.2094 93.278 54.4886 96.1304 53.6684C98.9828 52.8482 99.8653 52.2446 99.8653 52.2446Z" fill="black" stroke="black" stroke-width="1.5" stroke-linecap="round" stroke-linejoin="round"/>
<path d="M75.5103 25.8176L98.3537 24.8326L101.178 20.4873L103.365 24.9611C103.365 24.9611 105.372 30.5908 112.484 29.054L117.86 27.7608L110.709 9.03271L80.0772 13.6121L75.5103 25.8176Z" fill="#1B82FB"/>
<path d="M74.943 26.0228L98.3536 24.8326L101.178 20.4873L103.365 24.9611C103.365 24.9611 105.491 30.8371 112.603 29.3003" stroke="black" stroke-width="1.5" stroke-linecap="round" stroke-linejoin="round"/>
<path d="M94.9347 31.3404C94.9394 31.2112 94.9124 31.0895 94.8579 30.9892C94.8202 30.8735 94.7548 30.7712 94.6666 30.6898C94.5817 30.5983 94.48 30.533 94.3749 30.5C94.263 30.4415 94.1411 30.4153 94.0057 30.42L93.7705 30.4523C93.6156 30.4953 93.4795 30.5747 93.3589 30.6952L93.2215 30.8741C93.1387 31.0168 93.0962 31.1722 93.0962 31.3451L93.1049 31.4245C93.1002 31.553 93.1279 31.6748 93.1818 31.7758C93.2195 31.8922 93.2848 31.9944 93.3724 32.0752C93.4573 32.166 93.559 32.232 93.6648 32.2649C93.7672 32.3188 93.8783 32.3463 94.0003 32.3463C94.0117 32.3463 94.0225 32.3463 94.034 32.3463L94.2691 32.314C94.424 32.271 94.5601 32.1916 94.6807 32.0711L94.8182 31.8915C94.901 31.7488 94.9434 31.5934 94.9434 31.4286L94.934 31.3424L94.9347 31.3404Z" fill="black"/>
<path d="M84.2567 31.345C84.219 31.2286 84.1536 31.127 84.0661 31.0456C83.9812 30.9547 83.8794 30.8888 83.7737 30.8558C83.6612 30.7973 83.5386 30.7724 83.4045 30.7751L83.1694 30.8074C83.0144 30.8505 82.8783 30.9299 82.7577 31.0503L82.6203 31.2299C82.5375 31.3726 82.495 31.528 82.495 31.7003L82.5038 31.7797C82.499 31.9082 82.526 32.03 82.5806 32.1309C82.6183 32.2473 82.6836 32.3489 82.7719 32.4303C82.8568 32.5218 82.9585 32.5871 83.0636 32.6201C83.1667 32.6739 83.2772 32.7015 83.3998 32.7015C83.4105 32.7015 83.422 32.7015 83.4334 32.7015L83.6686 32.6692C83.8235 32.6261 83.9603 32.546 84.0802 32.4263L84.2176 32.2466C84.3005 32.104 84.3429 31.9485 84.3436 31.7837L84.3342 31.6969C84.3389 31.5684 84.3113 31.4466 84.2574 31.3457L84.2567 31.345Z" fill="black"/>
<path d="M87.8071 36.2222L87.2715 38.7507C87.1725 39.2177 87.578 39.6369 88.0463 39.5508L90.2701 39.143" stroke="black" stroke-width="1.5" stroke-linecap="round" stroke-linejoin="round"/>
<path d="M93.4194 27.9339C93.4194 27.9339 96.6161 26.8082 98.2612 28.9351" stroke="black" stroke-width="1.5" stroke-linecap="round" stroke-linejoin="round"/>
<path d="M97.1012 41.5049C97.1012 41.5049 96.1425 44.9835 91.7649 44.4022" stroke="black" stroke-width="1.5" stroke-linecap="round" stroke-linejoin="round"/>
<path d="M80.9946 29.2204C80.9946 29.2204 83.4603 27.2093 85.8412 28.446" stroke="black" stroke-width="1.5" stroke-linecap="round" stroke-linejoin="round"/>
<path d="M140.863 148.042C140.996 149.454 141.249 156.452 141.249 156.452L64.9083 156.236C64.9083 156.236 65.2694 152.418 65.5173 146.908C61.5035 151.189 58.4221 156.173 48.277 155.438C40.725 154.894 36.509 149.644 33.3892 144.736L5.68042 107.495L25.6357 93.3761L38.6958 108.114L47.3574 117.885L59.8678 75.551C61.0663 73.1126 62.8037 71.1115 64.8645 69.6239C67.8955 67.0462 73.2277 65.292 79.7712 65.3304L90.4108 65.21C90.3919 66.6034 90.6836 75.4245 101.152 74.9246C110.834 74.4563 112.306 67.2494 112.527 64.9502L129.716 64.7538C129.716 64.7538 131.403 64.6905 132.608 64.8426C140.458 65.8559 145.714 70.6432 148.535 75.6714C150.095 78.4449 150.881 81.5797 150.951 84.7589L151.896 130.133L151.972 130.653C152.6 138.619 148.173 145.858 140.863 148.043L140.863 148.042Z" fill="black"/>
<path d="M79.5806 80.6545C79.5806 80.6545 75.9656 77.8824 74.6586 75.1769C73.3517 72.4713 71.1224 74.4683 71.7072 76.6941C72.2926 78.9199 73.9149 80.3416 73.9149 80.3416" fill="#FFFDFD"/>
<path d="M79.5806 80.6545C79.5806 80.6545 75.9656 77.8824 74.6586 75.1769C73.3517 72.4713 71.1224 74.4683 71.7072 76.6941C72.2926 78.9199 73.9149 80.3416 73.9149 80.3416" stroke="black" stroke-width="1.5" stroke-linecap="round" stroke-linejoin="round"/>
<path d="M55.6371 86.9342L80.8525 72.0817L78.6159 68.1953L53.3998 83.0471L55.6371 86.9342Z" fill="#1B82FB" stroke="black" stroke-width="1.5" stroke-linecap="round" stroke-linejoin="round"/>
<path d="M75.6376 70.103L77.7893 73.8407" stroke="black" stroke-width="1.5" stroke-linecap="round" stroke-linejoin="round"/>
<path d="M55.6371 86.9344L50.4888 87.3045L53.3998 83.0474L55.6371 86.9344Z" fill="white" stroke="black" stroke-width="1.5" stroke-linecap="round" stroke-linejoin="round"/>
<path d="M52.8722 86.7884L51.9446 85.1763L50.6423 87.2164L52.8722 86.7884Z" fill="black"/>
<path d="M74.3798 78.0977C71.1461 76.9202 68.3866 76.4116 65.7835 76.0624C60.5894 75.3653 57.0754 77.8562 55.5017 78.7813C54.8179 79.183 55.0362 80.8174 56.2582 80.9506C57.865 81.1256 59.725 79.4219 61.034 79.6157C62.5195 79.8364 63.5886 80.0625 64.742 80.4211C62.2682 81.61 61.3863 83.4126 61.8465 84.9514C60.716 86.2332 60.4843 87.7282 60.8023 88.4953C60.8508 88.6117 60.9592 88.7072 61.1135 88.786C60.5314 90.1976 60.8157 91.546 61.5931 91.6227C63.1163 91.7741 63.2161 89.0914 65.836 89.9332C66.501 90.1465 70.3578 93.4811 70.3578 93.4811C71.6432 94.6216 81.5996 103.627 81.5996 103.627L91.2334 87.3043C84.3853 83.2013 77.0597 79.0727 74.3818 78.0977H74.3798Z" fill="#FFFDFD" stroke="black" stroke-width="1.5" stroke-linecap="round" stroke-linejoin="round"/>
<path d="M73.3456 80.987C73.3456 80.987 69.3284 78.8695 66.158 79.8646C65.6373 80.0281 65.165 80.2139 64.7393 80.4184" stroke="black" stroke-width="1.5" stroke-linecap="round" stroke-linejoin="round"/>
<path d="M71.7834 84.0638C71.7834 84.0638 67.4947 81.9551 64.1081 83.3674C63.1238 83.7778 62.3814 84.339 61.8431 84.9486" stroke="black" stroke-width="1.5" stroke-linecap="round" stroke-linejoin="round"/>
<path d="M61.1095 88.7844C61.4443 87.9729 62.0675 87.14 63.0497 86.5156C65.7411 84.8038 70.4293 87.6184 70.4293 87.6184" stroke="black" stroke-width="1.5" stroke-linecap="round" stroke-linejoin="round"/>
<path d="M126.909 108.979L126.706 97.8867" stroke="#FDFDFF" stroke-width="1.5" stroke-linecap="round" stroke-linejoin="round"/>
<path d="M67.5688 103.627C67.4873 106.614 66.2928 133.191 65.6515 147.364" stroke="#FDFDFF" stroke-width="1.5" stroke-linecap="round" stroke-linejoin="round"/>
<path d="M4.451 83.4921C4.451 83.4921 3.79619 79.4032 3.17235 77.0146C2.54852 74.626 6.84932 74.7215 7.55198 77.8402C8.25464 80.9588 8.23443 81.4985 8.23443 81.4985" fill="#FFFDFD"/>
<path d="M4.451 83.4921C4.451 83.4921 3.79619 79.4032 3.17235 77.0146C2.54852 74.626 6.84932 74.7215 7.55198 77.8402C8.25464 80.9588 8.23443 81.4985 8.23443 81.4985" stroke="black" stroke-width="1.5" stroke-linecap="round" stroke-linejoin="round"/>
<path d="M50.0946 106.383L41.0308 64.5825H5.59757L3.87024 66.3151L48.3673 108.116L50.0946 106.383Z" fill="#1B82FB" stroke="black" stroke-width="1.5" stroke-linecap="round" stroke-linejoin="round"/>
<path d="M48.3673 108.116L39.3042 66.3149H3.87024L12.934 108.116H48.3673Z" fill="#1B82FB" stroke="black" stroke-width="1.5" stroke-linecap="round" stroke-linejoin="round"/>
<path d="M11.0733 67.9526C9.62152 67.9526 8.44458 66.7771 8.44458 65.3271C8.44458 63.8771 9.62152 62.7017 11.0733 62.7017C12.162 62.7017 13.0964 63.3631 13.4959 64.3051" stroke="black" stroke-width="1.5" stroke-linecap="round" stroke-linejoin="round"/>
<path d="M14.5098 67.9526C13.058 67.9526 11.8811 66.7771 11.8811 65.3271C11.8811 63.8771 13.058 62.7017 14.5098 62.7017C15.5985 62.7017 16.5329 63.3631 16.9324 64.3051" stroke="black" stroke-width="1.5" stroke-linecap="round" stroke-linejoin="round"/>
<path d="M17.947 67.9526C16.4952 67.9526 15.3182 66.7771 15.3182 65.3271C15.3182 63.8771 16.4952 62.7017 17.947 62.7017C19.0357 62.7017 19.97 63.3631 20.3695 64.3051" stroke="black" stroke-width="1.5" stroke-linecap="round" stroke-linejoin="round"/>
<path d="M21.3835 67.9526C19.9317 67.9526 18.7548 66.7771 18.7548 65.3271C18.7548 63.8771 19.9317 62.7017 21.3835 62.7017C22.4722 62.7017 23.4066 63.3631 23.8061 64.3051" stroke="black" stroke-width="1.5" stroke-linecap="round" stroke-linejoin="round"/>
<path d="M24.8206 67.9526C23.3688 67.9526 22.1919 66.7771 22.1919 65.3271C22.1919 63.8771 23.3688 62.7017 24.8206 62.7017C25.9093 62.7017 26.8437 63.3631 27.2432 64.3051" stroke="black" stroke-width="1.5" stroke-linecap="round" stroke-linejoin="round"/>
<path d="M28.257 67.9526C26.8052 67.9526 25.6283 66.7771 25.6283 65.3271C25.6283 63.8771 26.8052 62.7017 28.257 62.7017C29.3457 62.7017 30.2801 63.3631 30.6796 64.3051" stroke="black" stroke-width="1.5" stroke-linecap="round" stroke-linejoin="round"/>
<path d="M31.6943 67.9526C30.2425 67.9526 29.0656 66.7771 29.0656 65.3271C29.0656 63.8771 30.2425 62.7017 31.6943 62.7017C32.7829 62.7017 33.7174 63.3631 34.1169 64.3051" stroke="black" stroke-width="1.5" stroke-linecap="round" stroke-linejoin="round"/>
<path d="M35.1314 67.9526C33.6796 67.9526 32.5027 66.7771 32.5027 65.3271C32.5027 63.8771 33.6796 62.7017 35.1314 62.7017C36.2201 62.7017 37.1545 63.3631 37.554 64.3051" stroke="black" stroke-width="1.5" stroke-linecap="round" stroke-linejoin="round"/>
<path d="M39.3042 66.3151L41.0309 64.5825" stroke="black" stroke-width="1.5" stroke-linecap="round" stroke-linejoin="round"/>
<path d="M9.8762 84.901C11.0201 84.4986 11.8272 84.175 13.3012 83.7242C15.7494 82.9753 15.5904 80.477 12.3891 80.9346C11.9208 81.0012 10.6792 81.0631 9.66668 81.277C10.4872 80.9648 11.3435 80.7347 12.2536 80.1493C13.9089 79.0849 12.7569 77.7923 10.8207 77.8038C9.93684 77.8085 8.23441 77.7937 5.84417 79.062C4.00365 80.0383 2.27767 81.4009 1.82832 82.5555C0.603554 85.7044 2.45283 92.9187 3.18244 95.5273C4.2792 99.4413 5.98498 103.102 7.84907 106.369L11.9323 103.507L9.62357 92.8366C10.5573 91.904 12.7212 91.0589 13.7937 90.3908C14.6001 89.8882 14.5792 88.9805 13.4029 88.5687C12.8323 88.3689 11.8083 88.0304 10.0217 88.566C10.1719 88.4368 10.3296 88.4503 10.461 88.3393C11.7875 87.2203 14.268 87.6584 14.7416 86.349C15.0737 85.4312 13.8732 84.0236 9.87552 84.901H9.8762Z" fill="#FFFDFD" stroke="black" stroke-width="1.5" stroke-linecap="round" stroke-linejoin="round"/>
<path d="M3.81641 85.3922C3.81641 85.3922 5.35443 83.3468 7.11208 82.2285C7.90838 81.7218 8.93171 81.4177 9.86679 81.2354" fill="#FEFFFF"/>
<path d="M3.81641 85.3922C3.81641 85.3922 5.35443 83.3468 7.11208 82.2285C7.90838 81.7218 8.93171 81.4177 9.86679 81.2354" stroke="black" stroke-width="1.5" stroke-linecap="round" stroke-linejoin="round"/>
<path d="M10.6482 88.1987C9.30419 88.8803 6.84119 91.0449 6.84119 91.0449" stroke="black" stroke-width="1.5" stroke-linecap="round" stroke-linejoin="round"/>
<path d="M5.36719 88.2632C5.36719 88.2632 6.94362 86.2513 8.82859 85.2966C9.14455 85.1364 9.5016 85.0052 9.87549 84.8989" stroke="black" stroke-width="1.5" stroke-linecap="round" stroke-linejoin="round"/>
<path d="M9.62421 92.8364L8.44458 93.915" stroke="black" stroke-width="1.5" stroke-linecap="round" stroke-linejoin="round"/>
<path d="M135.366 115.159L90.1293 82.1011L75.9973 103.674C75.9973 103.674 128.054 144.457 129.359 145.231C133.605 147.745 138.565 148.624 141.014 148.046" fill="black"/>
<path d="M135.366 115.159L90.1293 82.1011L75.9973 103.674C75.9973 103.674 128.054 144.457 129.359 145.231C133.605 147.745 138.565 148.624 141.014 148.046" stroke="#FDFDFF" stroke-width="1.5" stroke-linecap="round" stroke-linejoin="round"/>
</svg>
