<svg width="79" height="39" viewBox="0 0 79 39" fill="none" xmlns="http://www.w3.org/2000/svg">
<g filter="url(#filter0_d_1576_210)">
<rect x="4" y="4" width="71" height="31" rx="4" fill="#535353"/>
</g>
<path d="M32.268 16.764V19.212H35.148V20.328H32.268V22.884H35.508V24H30.9V15.648H35.508V16.764H32.268ZM40.025 20.652L42.161 24H40.613L39.185 21.756L37.841 24H36.413L38.549 20.748L36.413 17.388H37.961L39.389 19.632L40.733 17.388H42.161L40.025 20.652ZM42.7253 20.688C42.7253 20.008 42.8613 19.412 43.1333 18.9C43.4133 18.38 43.7973 17.98 44.2853 17.7C44.7733 17.42 45.3333 17.28 45.9653 17.28C46.7653 17.28 47.4253 17.472 47.9453 17.856C48.4733 18.232 48.8293 18.772 49.0133 19.476H47.5373C47.4173 19.148 47.2253 18.892 46.9613 18.708C46.6973 18.524 46.3653 18.432 45.9653 18.432C45.4053 18.432 44.9573 18.632 44.6213 19.032C44.2933 19.424 44.1293 19.976 44.1293 20.688C44.1293 21.4 44.2933 21.956 44.6213 22.356C44.9573 22.756 45.4053 22.956 45.9653 22.956C46.7573 22.956 47.2813 22.608 47.5373 21.912H49.0133C48.8213 22.584 48.4613 23.12 47.9333 23.52C47.4053 23.912 46.7493 24.108 45.9653 24.108C45.3333 24.108 44.7733 23.968 44.2853 23.688C43.7973 23.4 43.4133 23 43.1333 22.488C42.8613 21.968 42.7253 21.368 42.7253 20.688ZM51.7446 15.12V24H50.3766V15.12H51.7446ZM59.5286 17.388V24H58.1606V23.22C57.9446 23.492 57.6606 23.708 57.3086 23.868C56.9646 24.02 56.5966 24.096 56.2046 24.096C55.6846 24.096 55.2166 23.988 54.8006 23.772C54.3926 23.556 54.0686 23.236 53.8286 22.812C53.5966 22.388 53.4806 21.876 53.4806 21.276V17.388H54.8366V21.072C54.8366 21.664 54.9846 22.12 55.2806 22.44C55.5766 22.752 55.9806 22.908 56.4926 22.908C57.0046 22.908 57.4086 22.752 57.7046 22.44C58.0086 22.12 58.1606 21.664 58.1606 21.072V17.388H59.5286ZM62.0296 16.512C61.7816 16.512 61.5736 16.428 61.4056 16.26C61.2376 16.092 61.1536 15.884 61.1536 15.636C61.1536 15.388 61.2376 15.18 61.4056 15.012C61.5736 14.844 61.7816 14.76 62.0296 14.76C62.2696 14.76 62.4736 14.844 62.6416 15.012C62.8096 15.18 62.8936 15.388 62.8936 15.636C62.8936 15.884 62.8096 16.092 62.6416 16.26C62.4736 16.428 62.2696 16.512 62.0296 16.512ZM62.7016 17.388V24H61.3336V17.388H62.7016ZM65.8657 18.348C66.0657 18.012 66.3297 17.752 66.6577 17.568C66.9937 17.376 67.3897 17.28 67.8457 17.28V18.696H67.4977C66.9617 18.696 66.5537 18.832 66.2737 19.104C66.0017 19.376 65.8657 19.848 65.8657 20.52V24H64.4977V17.388H65.8657V18.348Z" fill="#FFAFAF"/>
<path d="M22.3438 13.6562H24.6562V15H15.3438V13.6562H17.6562L18.3438 13H21.6562L22.3438 13.6562ZM17.3438 17V23.6562H22.6562V17H17.3438ZM16 23.6562V15.6562H24V23.6562C24 24.0104 23.8646 24.3229 23.5938 24.5938C23.3229 24.8646 23.0104 25 22.6562 25H17.3438C16.9896 25 16.6771 24.8646 16.4062 24.5938C16.1354 24.3229 16 24.0104 16 23.6562Z" fill="#FFAFAF"/>
<defs>
<filter id="filter0_d_1576_210" x="0" y="0" width="79" height="39" filterUnits="userSpaceOnUse" color-interpolation-filters="sRGB">
<feFlood flood-opacity="0" result="BackgroundImageFix"/>
<feColorMatrix in="SourceAlpha" type="matrix" values="0 0 0 0 0 0 0 0 0 0 0 0 0 0 0 0 0 0 127 0" result="hardAlpha"/>
<feOffset/>
<feGaussianBlur stdDeviation="2"/>
<feComposite in2="hardAlpha" operator="out"/>
<feColorMatrix type="matrix" values="0 0 0 0 0 0 0 0 0 0 0 0 0 0 0 0 0 0 0.25 0"/>
<feBlend mode="normal" in2="BackgroundImageFix" result="effect1_dropShadow_1576_210"/>
<feBlend mode="normal" in="SourceGraphic" in2="effect1_dropShadow_1576_210" result="shape"/>
</filter>
</defs>
</svg>
