<svg width="79" height="39" viewBox="0 0 79 39" fill="none" xmlns="http://www.w3.org/2000/svg">
<g filter="url(#filter0_d_1507_66)">
<rect x="4" y="4" width="71" height="31" rx="4" fill="white"/>
</g>
<path d="M32.016 16.524V19.32H35.064V20.22H32.016V23.1H35.424V24H30.924V15.624H35.424V16.524H32.016ZM40.5083 24L38.9483 21.552L37.4483 24H36.3083L38.4323 20.736L36.3083 17.424H37.5443L39.1043 19.86L40.5923 17.424H41.7323L39.6203 20.676L41.7443 24H40.5083ZM42.4105 20.7C42.4105 20.02 42.5465 19.428 42.8185 18.924C43.0905 18.412 43.4665 18.016 43.9465 17.736C44.4345 17.456 44.9905 17.316 45.6145 17.316C46.4225 17.316 47.0865 17.512 47.6065 17.904C48.1345 18.296 48.4825 18.84 48.6505 19.536H47.4745C47.3625 19.136 47.1425 18.82 46.8145 18.588C46.4945 18.356 46.0945 18.24 45.6145 18.24C44.9905 18.24 44.4865 18.456 44.1025 18.888C43.7185 19.312 43.5265 19.916 43.5265 20.7C43.5265 21.492 43.7185 22.104 44.1025 22.536C44.4865 22.968 44.9905 23.184 45.6145 23.184C46.0945 23.184 46.4945 23.072 46.8145 22.848C47.1345 22.624 47.3545 22.304 47.4745 21.888H48.6505C48.4745 22.56 48.1225 23.1 47.5945 23.508C47.0665 23.908 46.4065 24.108 45.6145 24.108C44.9905 24.108 44.4345 23.968 43.9465 23.688C43.4665 23.408 43.0905 23.012 42.8185 22.5C42.5465 21.988 42.4105 21.388 42.4105 20.7ZM51.1996 15.12V24H50.1076V15.12H51.1996ZM58.8927 17.424V24H57.8007V23.028C57.5927 23.364 57.3007 23.628 56.9247 23.82C56.5567 24.004 56.1487 24.096 55.7007 24.096C55.1887 24.096 54.7287 23.992 54.3207 23.784C53.9127 23.568 53.5887 23.248 53.3487 22.824C53.1167 22.4 53.0007 21.884 53.0007 21.276V17.424H54.0807V21.132C54.0807 21.78 54.2447 22.28 54.5727 22.632C54.9007 22.976 55.3487 23.148 55.9167 23.148C56.5007 23.148 56.9607 22.968 57.2967 22.608C57.6327 22.248 57.8007 21.724 57.8007 21.036V17.424H58.8927ZM61.3005 16.356C61.0925 16.356 60.9165 16.284 60.7725 16.14C60.6285 15.996 60.5565 15.82 60.5565 15.612C60.5565 15.404 60.6285 15.228 60.7725 15.084C60.9165 14.94 61.0925 14.868 61.3005 14.868C61.5005 14.868 61.6685 14.94 61.8045 15.084C61.9485 15.228 62.0205 15.404 62.0205 15.612C62.0205 15.82 61.9485 15.996 61.8045 16.14C61.6685 16.284 61.5005 16.356 61.3005 16.356ZM61.8285 17.424V24H60.7365V17.424H61.8285ZM64.7816 18.492C64.9736 18.116 65.2456 17.824 65.5976 17.616C65.9576 17.408 66.3936 17.304 66.9056 17.304V18.432H66.6176C65.3936 18.432 64.7816 19.096 64.7816 20.424V24H63.6896V17.424H64.7816V18.492Z" fill="#DF0000"/>
<path d="M21.3438 13.6562H23.6562V15H14.3438V13.6562H16.6562L17.3438 13H20.6562L21.3438 13.6562ZM16.3438 17V23.6562H21.6562V17H16.3438ZM15 23.6562V15.6562H23V23.6562C23 24.0104 22.8646 24.3229 22.5938 24.5938C22.3229 24.8646 22.0104 25 21.6562 25H16.3438C15.9896 25 15.6771 24.8646 15.4062 24.5938C15.1354 24.3229 15 24.0104 15 23.6562Z" fill="#DF0000"/>
<defs>
<filter id="filter0_d_1507_66" x="0" y="0" width="79" height="39" filterUnits="userSpaceOnUse" color-interpolation-filters="sRGB">
<feFlood flood-opacity="0" result="BackgroundImageFix"/>
<feColorMatrix in="SourceAlpha" type="matrix" values="0 0 0 0 0 0 0 0 0 0 0 0 0 0 0 0 0 0 127 0" result="hardAlpha"/>
<feOffset/>
<feGaussianBlur stdDeviation="2"/>
<feComposite in2="hardAlpha" operator="out"/>
<feColorMatrix type="matrix" values="0 0 0 0 0 0 0 0 0 0 0 0 0 0 0 0 0 0 0.25 0"/>
<feBlend mode="normal" in2="BackgroundImageFix" result="effect1_dropShadow_1507_66"/>
<feBlend mode="normal" in="SourceGraphic" in2="effect1_dropShadow_1507_66" result="shape"/>
</filter>
</defs>
</svg>
