<svg width="332" height="236" viewBox="0 0 332 236" fill="none" xmlns="http://www.w3.org/2000/svg">
<path d="M331.027 0.504395H1.62933V234.814H331.027V0.504395Z" fill="white" stroke="#1B82FB" stroke-width="1.5" stroke-linecap="round" stroke-linejoin="round"/>
<path d="M111.27 15.9585V219.36" stroke="#1B82FB" stroke-width="1.5" stroke-linecap="round" stroke-linejoin="round"/>
<path d="M221.385 15.9585V219.36" stroke="#1B82FB" stroke-width="1.5" stroke-linecap="round" stroke-linejoin="round"/>
<path d="M52.1121 23.7065L26.1669 28.4419L30.9082 54.3549L56.8534 49.6195L52.1121 23.7065Z" fill="white" stroke="black" stroke-width="1.5" stroke-linecap="round" stroke-linejoin="round"/>
<path d="M30.5864 33.7824L42.925 31.4409" stroke="black" stroke-width="1.5" stroke-linecap="round" stroke-linejoin="round"/>
<path d="M31.3578 37.1371L48.045 33.9707" stroke="black" stroke-width="1.5" stroke-linecap="round" stroke-linejoin="round"/>
<path d="M32.1527 40.5061L50.1887 37.084" stroke="black" stroke-width="1.5" stroke-linecap="round" stroke-linejoin="round"/>
<path d="M32.7644 44.04L47.0217 41.3345" stroke="black" stroke-width="1.5" stroke-linecap="round" stroke-linejoin="round"/>
<path d="M166.531 115.105L140.693 109.818L135.4 135.624L161.238 140.911L166.531 115.105Z" fill="white" stroke="#1B82FB" stroke-width="1.5" stroke-linecap="round" stroke-linejoin="round"/>
<path d="M142.796 116.421L155.116 118.852" stroke="#1B82FB" stroke-width="1.5" stroke-linecap="round" stroke-linejoin="round"/>
<path d="M142.256 119.821L158.92 123.109" stroke="#1B82FB" stroke-width="1.5" stroke-linecap="round" stroke-linejoin="round"/>
<path d="M141.734 123.242L159.744 126.796" stroke="#1B82FB" stroke-width="1.5" stroke-linecap="round" stroke-linejoin="round"/>
<path d="M140.98 126.749L155.217 129.558" stroke="#1B82FB" stroke-width="1.5" stroke-linecap="round" stroke-linejoin="round"/>
<path d="M153.279 35.1171L125.221 43.4722L133.586 71.4952L161.644 63.1401L153.279 35.1171Z" fill="white" stroke="black" stroke-width="1.5" stroke-linecap="round" stroke-linejoin="round"/>
<path d="M135.4 64.6352L140.019 55.1359L143.728 57.402L147.874 50.3115L156.652 58.4537" fill="white"/>
<path d="M135.4 64.6352L140.019 55.1359L143.728 57.402L147.874 50.3115L156.652 58.4537" stroke="#1B82FB" stroke-width="1.5" stroke-linecap="round" stroke-linejoin="round"/>
<path d="M141.564 49.9042C142.35 49.9042 142.987 49.2683 142.987 48.4839C142.987 47.6994 142.35 47.0635 141.564 47.0635C140.779 47.0635 140.142 47.6994 140.142 48.4839C140.142 49.2683 140.779 49.9042 141.564 49.9042Z" fill="white" stroke="#1B82FB" stroke-width="1.5" stroke-linecap="round" stroke-linejoin="round"/>
<path d="M199.627 160.195L173.492 163.742L177.043 189.844L203.177 186.298L199.627 160.195Z" fill="white" stroke="black" stroke-width="1.5" stroke-linecap="round" stroke-linejoin="round"/>
<path d="M177.662 169.278L190.094 167.502" stroke="black" stroke-width="1.5" stroke-linecap="round" stroke-linejoin="round"/>
<path d="M178.279 172.665L195.094 170.263" stroke="black" stroke-width="1.5" stroke-linecap="round" stroke-linejoin="round"/>
<path d="M178.919 176.067L197.092 173.471" stroke="black" stroke-width="1.5" stroke-linecap="round" stroke-linejoin="round"/>
<path d="M179.368 179.624L193.734 177.572" stroke="black" stroke-width="1.5" stroke-linecap="round" stroke-linejoin="round"/>
<path d="M187.617 156.837L183.537 157.114L184.071 164.955L188.15 164.678L187.617 156.837Z" fill="#1B82FB" stroke="black" stroke-width="1.5" stroke-linecap="round" stroke-linejoin="round"/>
<path d="M203.571 71.3929L177.733 66.106L172.44 91.912L198.278 97.1989L203.571 71.3929Z" fill="white" stroke="black" stroke-width="1.5" stroke-linecap="round" stroke-linejoin="round"/>
<path d="M179.836 72.7085L192.156 75.1395" stroke="black" stroke-width="1.5" stroke-linecap="round" stroke-linejoin="round"/>
<path d="M179.296 76.1084L195.96 79.3966" stroke="black" stroke-width="1.5" stroke-linecap="round" stroke-linejoin="round"/>
<path d="M178.774 79.5298L196.785 83.0838" stroke="black" stroke-width="1.5" stroke-linecap="round" stroke-linejoin="round"/>
<path d="M178.02 83.0361L192.257 85.8453" stroke="black" stroke-width="1.5" stroke-linecap="round" stroke-linejoin="round"/>
<path d="M282.77 48.2737L257.852 39.6406L249.208 64.5279L274.126 73.161L282.77 48.2737Z" fill="white" stroke="black" stroke-width="1.5" stroke-linecap="round" stroke-linejoin="round"/>
<path d="M259.068 46.46L270.962 50.4876" stroke="black" stroke-width="1.5" stroke-linecap="round" stroke-linejoin="round"/>
<path d="M258.086 49.7598L274.172 55.2065" stroke="black" stroke-width="1.5" stroke-linecap="round" stroke-linejoin="round"/>
<path d="M257.118 53.0835L274.504 58.9703" stroke="black" stroke-width="1.5" stroke-linecap="round" stroke-linejoin="round"/>
<path d="M255.909 56.459L269.653 61.1131" stroke="black" stroke-width="1.5" stroke-linecap="round" stroke-linejoin="round"/>
</svg>
