<svg width="477" height="465" viewBox="0 0 477 465" fill="none" xmlns="http://www.w3.org/2000/svg">
<g clip-path="url(#clip0_7511_1529)">
<path d="M406.027 0.504395H76.6294V234.814H406.027V0.504395Z" fill="white" stroke="#1B82FB" stroke-width="1.5" stroke-linecap="round" stroke-linejoin="round"/>
<path d="M186.27 15.9585V219.36" stroke="#1B82FB" stroke-width="1.5" stroke-linecap="round" stroke-linejoin="round"/>
<path d="M296.385 15.9585V219.36" stroke="#1B82FB" stroke-width="1.5" stroke-linecap="round" stroke-linejoin="round"/>
<path d="M127.112 23.7065L101.167 28.4419L105.908 54.3549L131.853 49.6195L127.112 23.7065Z" fill="white" stroke="black" stroke-width="1.5" stroke-linecap="round" stroke-linejoin="round"/>
<path d="M105.586 33.7824L117.925 31.4409" stroke="black" stroke-width="1.5" stroke-linecap="round" stroke-linejoin="round"/>
<path d="M106.358 37.1371L123.045 33.9707" stroke="black" stroke-width="1.5" stroke-linecap="round" stroke-linejoin="round"/>
<path d="M107.153 40.5061L125.189 37.084" stroke="black" stroke-width="1.5" stroke-linecap="round" stroke-linejoin="round"/>
<path d="M107.764 44.04L122.022 41.3345" stroke="black" stroke-width="1.5" stroke-linecap="round" stroke-linejoin="round"/>
<path d="M241.531 115.105L215.693 109.818L210.4 135.624L236.238 140.911L241.531 115.105Z" fill="white" stroke="#1B82FB" stroke-width="1.5" stroke-linecap="round" stroke-linejoin="round"/>
<path d="M217.796 116.421L230.116 118.852" stroke="#1B82FB" stroke-width="1.5" stroke-linecap="round" stroke-linejoin="round"/>
<path d="M217.256 119.821L233.92 123.109" stroke="#1B82FB" stroke-width="1.5" stroke-linecap="round" stroke-linejoin="round"/>
<path d="M216.734 123.242L234.744 126.796" stroke="#1B82FB" stroke-width="1.5" stroke-linecap="round" stroke-linejoin="round"/>
<path d="M215.979 126.749L230.217 129.558" stroke="#1B82FB" stroke-width="1.5" stroke-linecap="round" stroke-linejoin="round"/>
<path d="M228.279 35.1171L200.221 43.4722L208.586 71.4952L236.644 63.1401L228.279 35.1171Z" fill="white" stroke="black" stroke-width="1.5" stroke-linecap="round" stroke-linejoin="round"/>
<path d="M210.4 64.6352L215.019 55.1359L218.728 57.402L222.874 50.3115L231.652 58.4537" fill="white"/>
<path d="M210.4 64.6352L215.019 55.1359L218.728 57.402L222.874 50.3115L231.652 58.4537" stroke="#1B82FB" stroke-width="1.5" stroke-linecap="round" stroke-linejoin="round"/>
<path d="M216.564 49.9042C217.35 49.9042 217.987 49.2683 217.987 48.4839C217.987 47.6994 217.35 47.0635 216.564 47.0635C215.779 47.0635 215.142 47.6994 215.142 48.4839C215.142 49.2683 215.779 49.9042 216.564 49.9042Z" fill="white" stroke="#1B82FB" stroke-width="1.5" stroke-linecap="round" stroke-linejoin="round"/>
<path d="M274.627 160.195L248.492 163.742L252.043 189.844L278.177 186.298L274.627 160.195Z" fill="white" stroke="black" stroke-width="1.5" stroke-linecap="round" stroke-linejoin="round"/>
<path d="M252.662 169.278L265.094 167.502" stroke="black" stroke-width="1.5" stroke-linecap="round" stroke-linejoin="round"/>
<path d="M253.279 172.665L270.094 170.263" stroke="black" stroke-width="1.5" stroke-linecap="round" stroke-linejoin="round"/>
<path d="M253.919 176.067L272.093 173.471" stroke="black" stroke-width="1.5" stroke-linecap="round" stroke-linejoin="round"/>
<path d="M254.369 179.624L268.734 177.572" stroke="black" stroke-width="1.5" stroke-linecap="round" stroke-linejoin="round"/>
<path d="M262.617 156.837L258.537 157.114L259.071 164.955L263.15 164.678L262.617 156.837Z" fill="#1B82FB" stroke="black" stroke-width="1.5" stroke-linecap="round" stroke-linejoin="round"/>
<path d="M278.571 71.3929L252.733 66.106L247.44 91.912L273.278 97.1989L278.571 71.3929Z" fill="white" stroke="black" stroke-width="1.5" stroke-linecap="round" stroke-linejoin="round"/>
<path d="M254.836 72.7085L267.156 75.1395" stroke="black" stroke-width="1.5" stroke-linecap="round" stroke-linejoin="round"/>
<path d="M254.296 76.1084L270.96 79.3966" stroke="black" stroke-width="1.5" stroke-linecap="round" stroke-linejoin="round"/>
<path d="M253.774 79.5298L271.785 83.0838" stroke="black" stroke-width="1.5" stroke-linecap="round" stroke-linejoin="round"/>
<path d="M253.02 83.0361L267.257 85.8453" stroke="black" stroke-width="1.5" stroke-linecap="round" stroke-linejoin="round"/>
<path d="M357.77 48.2737L332.852 39.6406L324.208 64.5279L349.126 73.161L357.77 48.2737Z" fill="white" stroke="black" stroke-width="1.5" stroke-linecap="round" stroke-linejoin="round"/>
<path d="M334.068 46.46L345.962 50.4876" stroke="black" stroke-width="1.5" stroke-linecap="round" stroke-linejoin="round"/>
<path d="M333.086 49.7598L349.172 55.2065" stroke="black" stroke-width="1.5" stroke-linecap="round" stroke-linejoin="round"/>
<path d="M332.118 53.0835L349.504 58.9703" stroke="black" stroke-width="1.5" stroke-linecap="round" stroke-linejoin="round"/>
<path d="M330.909 56.459L344.653 61.1131" stroke="black" stroke-width="1.5" stroke-linecap="round" stroke-linejoin="round"/>
<path d="M92.8692 80.7007L90.5746 78.7656C89.8854 75.2681 89.0103 71.8386 88.2181 69.4607C87.8064 68.2214 84.9844 61.5366 75.3958 60.8489C67.2906 60.2676 61.2544 65.4236 58.2578 72.1905C56.9098 75.2351 56.5979 78.635 57.2231 81.9051C58.8076 90.1912 63.3085 112.473 63.3085 112.473C63.3085 112.473 64.0792 122.971 77.2066 120.292C88.2349 118.042 85.4647 108.502 85.4647 108.502L83.5117 98.7391C87.958 96.9709 90.4406 94.6213 91.4639 91.7132C92.0507 90.0533 91.8324 86.4825 91.2328 82.5282L92.8591 81.7981C93.2525 81.5404 93.2586 80.9658 92.8692 80.7007Z" fill="#FDFDFD" stroke="black" stroke-width="1.5" stroke-linecap="round" stroke-linejoin="round"/>
<path d="M99.7928 55.3277C98.4933 48.9538 92.2643 44.842 85.8825 46.146C84.3121 46.4629 82.8826 47.086 81.6302 47.9317C79.3013 45.2471 75.631 43.8549 71.9021 44.6186C67.9146 45.4294 64.9618 48.472 64.0503 52.1734C63.7034 52.2265 63.3564 52.2851 63.0095 52.3557C52.8577 54.4234 46.3054 64.3277 48.3756 74.4669C48.6033 75.5791 48.9287 76.6463 49.335 77.6656C50.8043 82.6171 54.967 95.1853 59.9967 97.5645C64.9187 99.8932 71.7263 97.3162 75.4794 94.6706C79.2325 92.0243 78.7913 85.1336 78.7913 85.1336L77.9862 81.1611L78.0186 81.1645L81.4409 80.4479L80.3623 75.45C84.201 74.1628 82.8213 68.7053 82.8213 68.7053L87.5128 67.5796C87.7345 68.0863 87.9723 68.7214 88.2182 69.4623C89.0064 69.4683 89.8007 69.3916 90.6003 69.2274C96.9822 67.9234 101.099 61.7023 99.7935 55.3284L99.7928 55.3277Z" fill="black"/>
<path d="M89.1337 75.5731L89.1236 75.4856C89.1289 75.351 89.1007 75.2259 89.0393 75.1095C89.0003 74.9884 88.9329 74.8841 88.8372 74.7953C88.749 74.7004 88.6439 74.6331 88.5226 74.5934C88.4061 74.5322 88.2808 74.5046 88.146 74.5093L87.8867 74.5443C87.7209 74.5907 87.5774 74.6742 87.4555 74.7953L87.3026 74.9924C87.2143 75.1445 87.1699 75.3086 87.1692 75.4849L87.1793 75.5724C87.1739 75.707 87.2022 75.8321 87.2635 75.9485C87.3026 76.0696 87.3699 76.1739 87.4656 76.2628C87.5539 76.3576 87.659 76.4249 87.7802 76.4646C87.8968 76.5258 88.0221 76.5534 88.1568 76.5487L88.4162 76.5137C88.5819 76.4673 88.7254 76.3839 88.8473 76.2628L89.0003 76.0656C89.0885 75.9135 89.133 75.7494 89.1337 75.5731Z" fill="black"/>
<path d="M88.5126 70.9614C88.5126 70.9614 85.2439 71.7096 84.9885 74.3459" stroke="black" stroke-width="1.5" stroke-linecap="round" stroke-linejoin="round"/>
<path d="M80.5355 86.6057C77.7801 87.1675 75.084 85.3623 74.514 82.5733C73.9684 79.9041 75.5704 77.3069 78.1237 76.5957" fill="#FDFDFD"/>
<path d="M80.5355 86.6057C77.7801 87.1675 75.084 85.3623 74.514 82.5733C73.9684 79.9041 75.5704 77.3069 78.1237 76.5957" stroke="black" stroke-width="1.5" stroke-linecap="round" stroke-linejoin="round"/>
<path d="M79.1221 99.0523C81.6888 99.4654 83.5145 98.7388 83.5145 98.7388" stroke="black" stroke-width="1.5" stroke-linecap="round" stroke-linejoin="round"/>
<path d="M84.6282 104.345L78.9153 99.3211L83.5523 98.8252L84.6282 104.345Z" fill="black"/>
<path d="M85.7471 85.5327C85.7471 85.5327 86.9968 87.9556 90.1584 86.8542" stroke="black" stroke-width="1.5" stroke-linecap="round" stroke-linejoin="round"/>
<path d="M55.0224 442.478L54.5339 463.696H100.63C100.63 463.696 107.29 453.251 91.9613 451.976C82.2494 451.168 84.9664 441.468 84.9664 441.468" fill="black"/>
<path d="M98.7102 204.106L94.4464 445.929L47.3799 445.988L42.2754 208.808" fill="#1B82FB"/>
<path d="M83.5846 265.812L82.5498 445.988" stroke="#FDFDFD" stroke-width="1.5" stroke-linecap="round" stroke-linejoin="round"/>
<path d="M97.9051 237.42L94.4464 445.929L47.3799 445.988L42.4324 208.614" stroke="black" stroke-width="1.5" stroke-linecap="round" stroke-linejoin="round"/>
<path d="M39.2021 436.485C39.2021 436.485 32.9711 442.685 39.6076 449.813C50.0828 461.064 38.3741 464.11 38.3741 464.11L0.304688 432.91L13.2469 417.098" fill="black"/>
<path d="M130.979 338.092L43.09 444.346L5.5481 416.135L91.8205 312.021L72.8219 206.18L119.114 202.477L138.665 307.554C140.338 318.297 137.538 329.42 130.979 338.092L130.979 338.092Z" fill="#1B82FB"/>
<path d="M108.439 203.258L126.679 307.866C127.722 314.941 125.856 322.135 121.505 327.814L31.1238 435.394" stroke="#FDFDFD" stroke-width="1.5" stroke-linecap="round" stroke-linejoin="round"/>
<path d="M42.4324 208.614L119.221 202.464L138.649 307.475C140.356 318.267 137.542 329.449 130.933 338.154L43.0367 444.418L5.60327 416.062L91.805 312.029L77.2776 236.17" stroke="black" stroke-width="1.5" stroke-linecap="round" stroke-linejoin="round"/>
<path d="M115.013 93.9864C115.026 94.1492 112.745 95.8011 109.77 94.4809C109.908 94.3995 110.033 94.2804 110.145 94.1183C110.565 93.5241 112.407 93.0733 114.092 92.7793C114.624 93.399 115.007 93.8734 115.013 93.9864Z" fill="#FDFDFD" stroke="black" stroke-width="1.5" stroke-linecap="round" stroke-linejoin="round"/>
<path d="M114.092 92.7787C112.407 93.0727 110.565 93.5235 110.145 94.1176C110.033 94.2805 109.908 94.3989 109.769 94.4803C109.494 94.3551 109.212 94.2111 108.924 94.0295C108.498 93.7664 108.06 93.4414 107.615 93.035C107.471 92.9038 107.327 92.7719 107.189 92.6468C108.26 91.8272 110.384 91.1638 112.182 90.7197" fill="#FDFDFD"/>
<path d="M114.092 92.7787C112.407 93.0727 110.565 93.5235 110.145 94.1176C110.033 94.2805 109.908 94.3989 109.769 94.4803C109.494 94.3551 109.212 94.2111 108.924 94.0295C108.498 93.7664 108.06 93.4414 107.615 93.035C107.471 92.9038 107.327 92.7719 107.189 92.6468C108.26 91.8272 110.384 91.1638 112.182 90.7197" stroke="black" stroke-width="1.5" stroke-linecap="round" stroke-linejoin="round"/>
<path d="M112.181 90.7202C110.383 91.1643 108.26 91.8277 107.189 92.6472C106.299 91.8398 105.578 91.2147 104.921 90.8265C105.942 89.4815 107.769 88.6236 109.159 88.2104" fill="#FDFDFD"/>
<path d="M112.181 90.7202C110.383 91.1643 108.26 91.8277 107.189 92.6472C106.299 91.8398 105.578 91.2147 104.921 90.8265C105.942 89.4815 107.769 88.6236 109.159 88.2104" stroke="black" stroke-width="1.5" stroke-linecap="round" stroke-linejoin="round"/>
<path d="M101.433 82.4913C103.692 81.9066 110.117 83.3855 116.936 88.0867C120.648 90.6469 134.726 106.211 137.632 109.442L138.364 110.004L116.579 114.787C116.579 114.787 108.089 99.7882 106.442 97.7919C103.549 94.283 100.916 91.2746 102.503 90.5702C104.09 89.8657 105.318 90.9362 107.618 93.0362C111.567 96.644 115.032 94.1861 115.013 93.9849C114.98 93.6498 112.711 90.9315 110.628 89.2924C107.68 86.9738 105.333 85.986 101.544 84.4439C100.576 84.0496 100.78 82.6615 101.434 82.4926L101.433 82.4913Z" fill="#FDFDFD" stroke="black" stroke-width="1.5" stroke-linecap="round" stroke-linejoin="round"/>
<path d="M173.159 155.005C173.119 154.94 173.081 154.874 173.04 154.808C172.953 154.67 172.86 154.534 172.768 154.397C172.674 154.256 172.586 154.111 172.487 153.973L132.954 98.3286L121.88 105.683L110.746 112.96L112.327 114.709C112.327 114.709 110.907 113.861 108.64 112.227C102.413 107.737 97.8782 105.901 90.304 107.095L50.0181 111.03C50.0181 111.03 47.5565 111.274 44.4993 112.619C42.3758 113.433 40.4086 114.709 38.7675 116.411C37.3959 117.731 36.124 119.377 35.1215 121.41L22.8476 156.465C22.0567 158.723 21.0745 160.905 20.0754 163.079C18.0058 167.583 18.1662 172.812 20.512 177.179C21.8075 179.591 42.1818 203.809 42.1818 203.809C42.2316 203.878 42.4324 208.613 42.4324 208.613L119.221 202.464C118.351 182.318 116.996 167.155 116.589 157.149C128.774 164.779 147.315 176.193 151.472 177.654C153.728 178.447 156.096 178.834 158.433 178.841C161.995 179.131 165.674 178.228 168.817 176.002C175.604 171.192 177.423 161.998 173.159 155.006V155.005Z" fill="#FDFDFF"/>
<path d="M42.1818 203.809C42.1818 203.809 21.8075 179.591 20.512 177.179C18.1662 172.812 18.0058 167.583 20.0754 163.079C21.0745 160.905 22.0567 158.723 22.8476 156.465L35.1215 121.41C36.124 119.377 37.3959 117.731 38.7675 116.411C40.4086 114.709 42.3758 113.433 44.4993 112.619C47.5565 111.274 50.0181 111.03 50.0181 111.03L90.304 107.095C96.9768 106.148 101.813 107.551 105.318 109.982C105.819 110.33 112.327 114.709 112.327 114.709L110.746 112.96L121.88 105.683L132.954 98.3286L172.487 153.973C172.586 154.111 172.674 154.256 172.768 154.397C172.86 154.534 172.953 154.67 173.04 154.808C173.081 154.874 173.119 154.94 173.159 155.005V155.006C177.423 161.998 175.604 171.192 168.817 176.002C165.674 178.228 161.995 179.131 158.433 178.841C156.096 178.834 153.728 178.447 151.472 177.654C147.315 176.193 128.774 164.779 116.589 157.149C116.996 167.155 118.351 182.318 119.221 202.464L42.4324 208.613L42.1818 203.809ZM42.1818 203.809C42.1191 203.741 42.2316 203.878 42.1818 203.809Z" stroke="black" stroke-width="1.5" stroke-linecap="round" stroke-linejoin="round"/>
<path d="M42.4324 208.614L40.3965 154.376" stroke="black" stroke-width="1.5" stroke-linecap="round" stroke-linejoin="round"/>
<path d="M105.653 150.25C105.653 150.25 110.265 153.19 116.589 157.149" stroke="black" stroke-width="1.5" stroke-linecap="round" stroke-linejoin="round"/>
<path d="M156.092 145.49L110.727 113.585" stroke="black" stroke-width="1.5" stroke-linecap="round" stroke-linejoin="round"/>
<path d="M137.045 104.097L116.763 117.659" stroke="black" stroke-width="1.5" stroke-linecap="round" stroke-linejoin="round"/>
<path d="M365.05 410.366L366.18 446.077H388.951L389.941 410.81L365.05 410.366Z" fill="#FFFDFD" stroke="black" stroke-width="1.5" stroke-linecap="round" stroke-linejoin="round"/>
<path d="M390.622 464.11H382.392C381.594 462.267 380.121 460.037 380.121 460.037L377.493 464.11H344.006C344.006 464.11 339.877 453.333 353.108 452.751C367.093 452.136 365.144 434.916 365.144 434.916H375.181L378.26 441.394L381.73 434.916H389.881L390.622 464.11Z" fill="#1B82FB" stroke="black" stroke-width="1.5" stroke-linecap="round" stroke-linejoin="round"/>
<path d="M426.972 409.732L428.736 446.077H451.508L451.863 410.81L426.972 409.732Z" fill="#FFFDFD" stroke="black" stroke-width="1.5" stroke-linecap="round" stroke-linejoin="round"/>
<path d="M453.179 464.11H444.949C444.15 462.267 442.678 460.037 442.678 460.037L440.05 464.11H405.929C405.929 464.11 401.8 453.333 415.031 452.751C429.015 452.136 427.701 434.916 427.701 434.916H437.737L440.816 441.394L444.286 434.916H452.437L453.179 464.11Z" fill="#1B82FB" stroke="black" stroke-width="1.5" stroke-linecap="round" stroke-linejoin="round"/>
<path d="M370.154 202.236L344.167 295.51C343.303 298.907 343.164 302.447 343.76 305.901L352.192 424.816L396.701 424.418L390.117 302.658L401.763 264.311L413.044 424.83L457.075 424.275L446.324 202.147L370.155 202.236H370.154Z" fill="#FCFCFC"/>
<path d="M401.763 264.311L399.281 234.46" stroke="black" stroke-width="1.5" stroke-linecap="round" stroke-linejoin="round"/>
<path d="M370.154 202.237L344.167 295.51C343.303 298.907 343.164 302.447 343.76 305.901L352.192 424.816L396.701 424.418L390.117 302.658L401.763 264.311L413.044 424.83L457.075 424.275L445.719 202.193L370.155 202.237H370.154Z" stroke="black" stroke-width="1.5" stroke-linecap="round" stroke-linejoin="round"/>
<path d="M423.542 91.957L461.08 160.168L423.791 167.912L419.777 92.7389" fill="#1B82FB"/>
<path d="M423.542 91.957L461.08 160.168L423.791 167.912L419.777 92.7389" stroke="black" stroke-width="1.5" stroke-linecap="round" stroke-linejoin="round"/>
<path d="M428.782 69.3754C426.031 56.166 417.101 47.0812 403.854 47.0577C390.606 47.0341 379.967 58.5311 379.943 72.0231L396.6 71.1242L412.68 98.0523C412.68 98.0523 433.839 93.6572 428.782 69.3754Z" fill="#1B82FB" stroke="black" stroke-width="1.5" stroke-linecap="round" stroke-linejoin="round"/>
<path d="M425.636 95.7617L419.972 98.9423L418.449 95.7584C418.449 95.7584 419.925 94.9402 420.996 94.1334C422.7 92.8503 423.711 91.8794 423.711 91.8794L425.636 95.7617Z" fill="#050505" stroke="black" stroke-width="1.5" stroke-linecap="round" stroke-linejoin="round"/>
<path d="M417.424 85.7546C420.267 85.7109 422.53 83.3317 422.48 80.4411C422.431 77.675 420.28 75.4479 417.604 75.2999C415.484 65.9997 407.793 59.0068 398.035 59.1582C390.698 59.2719 388.09 63.2686 384.623 69.2529C382.788 72.4194 383.319 90.9887 385.793 94.9733C387.448 97.6378 390.41 99.4256 395.184 100.209L395.416 111.026C395.416 111.026 394.791 121.469 406.155 120.92C417.682 120.364 417.568 110.25 417.568 110.25C417.568 110.25 417.234 87.1487 417.327 85.7512C417.36 85.7512 417.391 85.7553 417.424 85.7546Z" fill="#FFFDFD" stroke="black" stroke-width="1.5" stroke-linecap="round" stroke-linejoin="round"/>
<path d="M404.866 98.2446L395.39 108.995L395.183 100.209C395.183 100.209 398.278 100.489 401.131 99.6684C403.983 98.8482 404.866 98.2446 404.866 98.2446Z" fill="black" stroke="black" stroke-width="1.5" stroke-linecap="round" stroke-linejoin="round"/>
<path d="M380.51 71.8176L403.354 70.8326L406.178 66.4873L408.365 70.9611C408.365 70.9611 410.372 76.5908 417.484 75.054L422.861 73.7608L415.709 55.0327L385.077 59.6121L380.51 71.8176Z" fill="#1B82FB"/>
<path d="M379.943 72.0228L403.354 70.8326L406.178 66.4873L408.365 70.9611C408.365 70.9611 410.491 76.8371 417.604 75.3003" stroke="black" stroke-width="1.5" stroke-linecap="round" stroke-linejoin="round"/>
<path d="M399.935 77.3404C399.939 77.2112 399.912 77.0895 399.858 76.9892C399.82 76.8735 399.755 76.7712 399.667 76.6898C399.582 76.5983 399.48 76.533 399.375 76.5C399.263 76.4415 399.141 76.4153 399.006 76.42L398.771 76.4523C398.616 76.4953 398.48 76.5747 398.359 76.6952L398.222 76.8741C398.139 77.0168 398.096 77.1722 398.096 77.3451L398.105 77.4245C398.1 77.553 398.128 77.6748 398.182 77.7758C398.219 77.8922 398.285 77.9944 398.372 78.0752C398.457 78.166 398.559 78.232 398.665 78.2649C398.767 78.3188 398.878 78.3463 399 78.3463C399.012 78.3463 399.023 78.3463 399.034 78.3463L399.269 78.314C399.424 78.271 399.56 78.1916 399.681 78.0711L399.818 77.8915C399.901 77.7488 399.943 77.5934 399.943 77.4286L399.934 77.3424L399.935 77.3404Z" fill="black"/>
<path d="M389.257 77.345C389.219 77.2286 389.154 77.127 389.066 77.0456C388.981 76.9547 388.88 76.8888 388.774 76.8558C388.661 76.7973 388.539 76.7724 388.405 76.7751L388.17 76.8074C388.015 76.8505 387.878 76.9299 387.758 77.0503L387.62 77.2299C387.538 77.3726 387.495 77.528 387.495 77.7003L387.504 77.7797C387.499 77.9082 387.526 78.03 387.581 78.1309C387.618 78.2473 387.684 78.3489 387.772 78.4303C387.857 78.5218 387.959 78.5871 388.064 78.6201C388.167 78.6739 388.277 78.7015 388.4 78.7015C388.411 78.7015 388.422 78.7015 388.434 78.7015L388.669 78.6692C388.824 78.6261 388.96 78.546 389.08 78.4263L389.218 78.2466C389.301 78.104 389.343 77.9485 389.344 77.7837L389.334 77.6969C389.339 77.5684 389.311 77.4466 389.258 77.3457L389.257 77.345Z" fill="black"/>
<path d="M392.807 82.2222L392.272 84.7507C392.173 85.2177 392.578 85.6369 393.046 85.5508L395.27 85.143" stroke="black" stroke-width="1.5" stroke-linecap="round" stroke-linejoin="round"/>
<path d="M398.42 73.9339C398.42 73.9339 401.616 72.8082 403.261 74.9351" stroke="black" stroke-width="1.5" stroke-linecap="round" stroke-linejoin="round"/>
<path d="M402.101 87.5049C402.101 87.5049 401.143 90.9835 396.765 90.4022" stroke="black" stroke-width="1.5" stroke-linecap="round" stroke-linejoin="round"/>
<path d="M385.995 75.2204C385.995 75.2204 388.461 73.2093 390.841 74.446" stroke="black" stroke-width="1.5" stroke-linecap="round" stroke-linejoin="round"/>
<path d="M445.863 194.042C445.996 195.454 446.249 202.452 446.249 202.452L369.909 202.236C369.909 202.236 370.27 198.418 370.518 192.908C366.504 197.189 363.422 202.173 353.277 201.438C345.725 200.894 341.509 195.644 338.389 190.736L310.681 153.495L330.636 139.376L343.696 154.114L352.358 163.885L364.868 121.551C366.067 119.113 367.804 117.112 369.865 115.624C372.896 113.046 378.228 111.292 384.771 111.33L395.411 111.21C395.392 112.603 395.684 121.424 406.152 120.925C415.835 120.456 417.306 113.249 417.528 110.95L434.717 110.754C434.717 110.754 436.403 110.691 437.608 110.843C445.458 111.856 450.714 116.643 453.535 121.671C455.095 124.445 455.881 127.58 455.951 130.759L456.896 176.133L456.972 176.653C457.6 184.619 453.174 191.858 445.863 194.043L445.863 194.042Z" fill="black"/>
<path d="M384.581 126.655C384.581 126.655 380.966 123.882 379.659 121.177C378.352 118.471 376.123 120.468 376.707 122.694C377.293 124.92 378.915 126.342 378.915 126.342" fill="#FFFDFD"/>
<path d="M384.581 126.655C384.581 126.655 380.966 123.882 379.659 121.177C378.352 118.471 376.123 120.468 376.707 122.694C377.293 124.92 378.915 126.342 378.915 126.342" stroke="black" stroke-width="1.5" stroke-linecap="round" stroke-linejoin="round"/>
<path d="M360.637 132.934L385.853 118.082L383.616 114.195L358.4 129.047L360.637 132.934Z" fill="#1B82FB" stroke="black" stroke-width="1.5" stroke-linecap="round" stroke-linejoin="round"/>
<path d="M380.638 116.103L382.789 119.841" stroke="black" stroke-width="1.5" stroke-linecap="round" stroke-linejoin="round"/>
<path d="M360.637 132.934L355.489 133.304L358.4 129.047L360.637 132.934Z" fill="white" stroke="black" stroke-width="1.5" stroke-linecap="round" stroke-linejoin="round"/>
<path d="M357.872 132.788L356.945 131.176L355.643 133.216L357.872 132.788Z" fill="black"/>
<path d="M379.38 124.098C376.146 122.92 373.387 122.412 370.784 122.062C365.589 121.365 362.076 123.856 360.502 124.781C359.818 125.183 360.036 126.817 361.258 126.951C362.865 127.126 364.725 125.422 366.034 125.616C367.52 125.836 368.589 126.062 369.742 126.421C367.268 127.61 366.386 129.413 366.847 130.951C365.716 132.233 365.484 133.728 365.802 134.495C365.851 134.612 365.959 134.707 366.114 134.786C365.532 136.198 365.816 137.546 366.593 137.623C368.116 137.774 368.216 135.091 370.836 135.933C371.501 136.146 375.358 139.481 375.358 139.481C376.643 140.622 386.6 149.627 386.6 149.627L396.233 133.304C389.385 129.201 382.06 125.073 379.382 124.098H379.38Z" fill="#FFFDFD" stroke="black" stroke-width="1.5" stroke-linecap="round" stroke-linejoin="round"/>
<path d="M378.346 126.987C378.346 126.987 374.329 124.869 371.158 125.865C370.637 126.028 370.165 126.214 369.74 126.418" stroke="black" stroke-width="1.5" stroke-linecap="round" stroke-linejoin="round"/>
<path d="M376.784 130.064C376.784 130.064 372.495 127.955 369.108 129.367C368.124 129.778 367.382 130.339 366.843 130.949" stroke="black" stroke-width="1.5" stroke-linecap="round" stroke-linejoin="round"/>
<path d="M366.11 134.784C366.444 133.973 367.068 133.14 368.05 132.516C370.741 130.804 375.429 133.618 375.429 133.618" stroke="black" stroke-width="1.5" stroke-linecap="round" stroke-linejoin="round"/>
<path d="M431.91 154.979L431.706 143.887" stroke="#FDFDFF" stroke-width="1.5" stroke-linecap="round" stroke-linejoin="round"/>
<path d="M372.569 149.627C372.487 152.614 371.293 179.191 370.652 193.364" stroke="#FDFDFF" stroke-width="1.5" stroke-linecap="round" stroke-linejoin="round"/>
<path d="M309.451 129.492C309.451 129.492 308.796 125.403 308.172 123.015C307.549 120.626 311.849 120.721 312.552 123.84C313.255 126.959 313.235 127.498 313.235 127.498" fill="#FFFDFD"/>
<path d="M309.451 129.492C309.451 129.492 308.796 125.403 308.172 123.015C307.549 120.626 311.849 120.721 312.552 123.84C313.255 126.959 313.235 127.498 313.235 127.498" stroke="black" stroke-width="1.5" stroke-linecap="round" stroke-linejoin="round"/>
<path d="M355.095 152.383L346.031 110.583H310.598L308.871 112.315L353.368 154.116L355.095 152.383Z" fill="#1B82FB" stroke="black" stroke-width="1.5" stroke-linecap="round" stroke-linejoin="round"/>
<path d="M353.368 154.116L344.305 112.315H308.871L317.934 154.116H353.368Z" fill="#1B82FB" stroke="black" stroke-width="1.5" stroke-linecap="round" stroke-linejoin="round"/>
<path d="M316.074 113.953C314.622 113.953 313.445 112.777 313.445 111.327C313.445 109.877 314.622 108.702 316.074 108.702C317.162 108.702 318.097 109.363 318.496 110.305" stroke="black" stroke-width="1.5" stroke-linecap="round" stroke-linejoin="round"/>
<path d="M319.51 113.953C318.058 113.953 316.881 112.777 316.881 111.327C316.881 109.877 318.058 108.702 319.51 108.702C320.599 108.702 321.533 109.363 321.933 110.305" stroke="black" stroke-width="1.5" stroke-linecap="round" stroke-linejoin="round"/>
<path d="M322.947 113.953C321.496 113.953 320.319 112.777 320.319 111.327C320.319 109.877 321.496 108.702 322.947 108.702C324.036 108.702 324.97 109.363 325.37 110.305" stroke="black" stroke-width="1.5" stroke-linecap="round" stroke-linejoin="round"/>
<path d="M326.384 113.953C324.932 113.953 323.755 112.777 323.755 111.327C323.755 109.877 324.932 108.702 326.384 108.702C327.472 108.702 328.407 109.363 328.806 110.305" stroke="black" stroke-width="1.5" stroke-linecap="round" stroke-linejoin="round"/>
<path d="M329.821 113.953C328.369 113.953 327.192 112.777 327.192 111.327C327.192 109.877 328.369 108.702 329.821 108.702C330.91 108.702 331.844 109.363 332.243 110.305" stroke="black" stroke-width="1.5" stroke-linecap="round" stroke-linejoin="round"/>
<path d="M333.257 113.953C331.806 113.953 330.629 112.777 330.629 111.327C330.629 109.877 331.806 108.702 333.257 108.702C334.346 108.702 335.28 109.363 335.68 110.305" stroke="black" stroke-width="1.5" stroke-linecap="round" stroke-linejoin="round"/>
<path d="M336.694 113.953C335.243 113.953 334.066 112.777 334.066 111.327C334.066 109.877 335.243 108.702 336.694 108.702C337.783 108.702 338.717 109.363 339.117 110.305" stroke="black" stroke-width="1.5" stroke-linecap="round" stroke-linejoin="round"/>
<path d="M340.132 113.953C338.68 113.953 337.503 112.777 337.503 111.327C337.503 109.877 338.68 108.702 340.132 108.702C341.22 108.702 342.155 109.363 342.554 110.305" stroke="black" stroke-width="1.5" stroke-linecap="round" stroke-linejoin="round"/>
<path d="M344.304 112.315L346.031 110.583" stroke="black" stroke-width="1.5" stroke-linecap="round" stroke-linejoin="round"/>
<path d="M314.876 130.901C316.02 130.499 316.827 130.175 318.301 129.724C320.75 128.975 320.591 126.477 317.389 126.935C316.921 127.001 315.679 127.063 314.667 127.277C315.487 126.965 316.344 126.735 317.254 126.149C318.909 125.085 317.757 123.792 315.821 123.804C314.937 123.808 313.235 123.794 310.844 125.062C309.004 126.038 307.278 127.401 306.829 128.555C305.604 131.704 307.453 138.919 308.183 141.527C309.279 145.441 310.985 149.102 312.849 152.369L316.933 149.507L314.624 138.837C315.558 137.904 317.721 137.059 318.794 136.391C319.6 135.888 319.579 134.981 318.403 134.569C317.833 134.369 316.809 134.03 315.022 134.566C315.172 134.437 315.33 134.45 315.461 134.339C316.788 133.22 319.268 133.658 319.742 132.349C320.074 131.431 318.873 130.024 314.876 130.901H314.876Z" fill="#FFFDFD" stroke="black" stroke-width="1.5" stroke-linecap="round" stroke-linejoin="round"/>
<path d="M308.817 131.392C308.817 131.392 310.355 129.347 312.112 128.228C312.909 127.722 313.932 127.418 314.867 127.235" fill="#FEFFFF"/>
<path d="M308.817 131.392C308.817 131.392 310.355 129.347 312.112 128.228C312.909 127.722 313.932 127.418 314.867 127.235" stroke="black" stroke-width="1.5" stroke-linecap="round" stroke-linejoin="round"/>
<path d="M315.649 134.199C314.305 134.88 311.842 137.045 311.842 137.045" stroke="black" stroke-width="1.5" stroke-linecap="round" stroke-linejoin="round"/>
<path d="M310.367 134.263C310.367 134.263 311.944 132.251 313.829 131.297C314.145 131.136 314.502 131.005 314.876 130.899" stroke="black" stroke-width="1.5" stroke-linecap="round" stroke-linejoin="round"/>
<path d="M314.624 138.836L313.445 139.915" stroke="black" stroke-width="1.5" stroke-linecap="round" stroke-linejoin="round"/>
<path d="M440.366 161.159L395.129 128.101L380.998 149.674C380.998 149.674 433.055 190.457 434.36 191.231C438.605 193.745 443.566 194.624 446.014 194.046" fill="black"/>
<path d="M440.366 161.159L395.129 128.101L380.998 149.674C380.998 149.674 433.055 190.457 434.36 191.231C438.605 193.745 443.566 194.624 446.014 194.046" stroke="#FDFDFF" stroke-width="1.5" stroke-linecap="round" stroke-linejoin="round"/>
</g>
<defs>
<clipPath id="clip0_7511_1529">
<rect width="476" height="465" fill="white" transform="translate(0.304688)"/>
</clipPath>
</defs>
</svg>
