<svg width="29" height="28" viewBox="0 0 29 28" fill="none" xmlns="http://www.w3.org/2000/svg">
<path d="M7.73047 25.0195H12.7695C12.7695 25.6836 12.5156 26.2695 12.0078 26.7773C11.5391 27.2461 10.9531 27.4805 10.25 27.4805C9.54688 27.4805 8.94141 27.2461 8.43359 26.7773C7.96484 26.2695 7.73047 25.6836 7.73047 25.0195ZM5.26953 23.7305H15.2305V21.2695H5.26953V23.7305ZM19.625 11.8945C19.625 13.0664 19.4492 14.1211 19.0977 15.0586C18.7461 15.957 18.2969 16.7383 17.75 17.4023C17.2422 18.0664 16.7148 18.6133 16.168 19.043C15.6602 19.4727 15.25 19.7852 14.9375 19.9805H5.5625C5.25 19.7852 4.82031 19.4727 4.27344 19.043C3.76562 18.6133 3.23828 18.0664 2.69141 17.4023C2.18359 16.7383 1.75391 15.957 1.40234 15.0586C1.05078 14.1211 0.875 13.0664 0.875 11.8945C0.875 10.6055 1.10938 9.39453 1.57812 8.26172C2.08594 7.12891 2.76953 6.13281 3.62891 5.27344C4.48828 4.41406 5.48438 3.75 6.61719 3.28125C7.75 2.77344 8.96094 2.51953 10.25 2.51953C11.5391 2.51953 12.75 2.77344 13.8828 3.28125C15.0156 3.75 16.0117 4.41406 16.8711 5.27344C17.7305 6.13281 18.3945 7.12891 18.8633 8.26172C19.3711 9.39453 19.625 10.6055 19.625 11.8945ZM25.7188 9.19922L24.0195 10.0195L25.7188 10.7812L26.4805 12.4805L27.3008 10.7812L29 10.0195L27.3008 9.19922L26.4805 7.5L25.7188 9.19922ZM22.7305 7.5L23.9023 4.92188L26.4805 3.75L23.9023 2.57812L22.7305 0L21.5586 2.57812L18.9805 3.75L21.5586 4.92188L22.7305 7.5Z" fill="black"/>
</svg>
