<svg width="121" height="33" viewBox="0 0 121 33" fill="none" xmlns="http://www.w3.org/2000/svg">
<rect y="30" width="121" height="3" rx="1.5" fill="#3867D6"/>
<path d="M21.6052 22H18.8052L12.4652 12.42V22H9.66516V8.02H12.4652L18.8052 17.62V8.02H21.6052V22ZM29.2922 22.18C28.2255 22.18 27.2655 21.9467 26.4122 21.48C25.5589 21 24.8855 20.3267 24.3922 19.46C23.9122 18.5933 23.6722 17.5933 23.6722 16.46C23.6722 15.3267 23.9189 14.3267 24.4122 13.46C24.9189 12.5933 25.6055 11.9267 26.4722 11.46C27.3389 10.98 28.3055 10.74 29.3722 10.74C30.4389 10.74 31.4055 10.98 32.2722 11.46C33.1389 11.9267 33.8189 12.5933 34.3122 13.46C34.8189 14.3267 35.0722 15.3267 35.0722 16.46C35.0722 17.5933 34.8122 18.5933 34.2922 19.46C33.7855 20.3267 33.0922 21 32.2122 21.48C31.3455 21.9467 30.3722 22.18 29.2922 22.18ZM29.2922 19.74C29.7989 19.74 30.2722 19.62 30.7122 19.38C31.1655 19.1267 31.5255 18.7533 31.7922 18.26C32.0589 17.7667 32.1922 17.1667 32.1922 16.46C32.1922 15.4067 31.9122 14.6 31.3522 14.04C30.8055 13.4667 30.1322 13.18 29.3322 13.18C28.5322 13.18 27.8589 13.4667 27.3122 14.04C26.7789 14.6 26.5122 15.4067 26.5122 16.46C26.5122 17.5133 26.7722 18.3267 27.2922 18.9C27.8255 19.46 28.4922 19.74 29.2922 19.74ZM41.7461 19.42L44.5461 10.92H47.5261L43.4261 22H40.0261L35.9461 10.92H38.9461L41.7461 19.42ZM48.3787 16.42C48.3787 15.3 48.5987 14.3067 49.0387 13.44C49.4921 12.5733 50.0988 11.9067 50.8588 11.44C51.6321 10.9733 52.4921 10.74 53.4388 10.74C54.2654 10.74 54.9854 10.9067 55.5988 11.24C56.2254 11.5733 56.7254 11.9933 57.0988 12.5V10.92H59.9188V22H57.0988V20.38C56.7388 20.9 56.2388 21.3333 55.5988 21.68C54.9721 22.0133 54.2454 22.18 53.4188 22.18C52.4854 22.18 51.6321 21.94 50.8588 21.46C50.0988 20.98 49.4921 20.3067 49.0387 19.44C48.5987 18.56 48.3787 17.5533 48.3787 16.42ZM57.0988 16.46C57.0988 15.78 56.9654 15.2 56.6988 14.72C56.4321 14.2267 56.0721 13.8533 55.6188 13.6C55.1654 13.3333 54.6788 13.2 54.1588 13.2C53.6388 13.2 53.1588 13.3267 52.7188 13.58C52.2788 13.8333 51.9188 14.2067 51.6388 14.7C51.3721 15.18 51.2388 15.7533 51.2388 16.42C51.2388 17.0867 51.3721 17.6733 51.6388 18.18C51.9188 18.6733 52.2788 19.0533 52.7188 19.32C53.1721 19.5867 53.6521 19.72 54.1588 19.72C54.6788 19.72 55.1654 19.5933 55.6188 19.34C56.0721 19.0733 56.4321 18.7 56.6988 18.22C56.9654 17.7267 57.0988 17.14 57.0988 16.46ZM76.9191 8.04V10.3H73.1991V22H70.3991V10.3H66.6791V8.04H76.9191ZM78.242 16.42C78.242 15.3 78.462 14.3067 78.902 13.44C79.3554 12.5733 79.962 11.9067 80.722 11.44C81.4954 10.9733 82.3554 10.74 83.302 10.74C84.1287 10.74 84.8487 10.9067 85.462 11.24C86.0887 11.5733 86.5887 11.9933 86.962 12.5V10.92H89.782V22H86.962V20.38C86.602 20.9 86.102 21.3333 85.462 21.68C84.8354 22.0133 84.1087 22.18 83.282 22.18C82.3487 22.18 81.4954 21.94 80.722 21.46C79.962 20.98 79.3554 20.3067 78.902 19.44C78.462 18.56 78.242 17.5533 78.242 16.42ZM86.962 16.46C86.962 15.78 86.8287 15.2 86.562 14.72C86.2954 14.2267 85.9354 13.8533 85.482 13.6C85.0287 13.3333 84.542 13.2 84.022 13.2C83.502 13.2 83.022 13.3267 82.582 13.58C82.142 13.8333 81.782 14.2067 81.502 14.7C81.2354 15.18 81.102 15.7533 81.102 16.42C81.102 17.0867 81.2354 17.6733 81.502 18.18C81.782 18.6733 82.142 19.0533 82.582 19.32C83.0354 19.5867 83.5154 19.72 84.022 19.72C84.542 19.72 85.0287 19.5933 85.482 19.34C85.9354 19.0733 86.2954 18.7 86.562 18.22C86.8287 17.7267 86.962 17.14 86.962 16.46ZM96.7567 22.18C95.8501 22.18 95.0367 22.02 94.3167 21.7C93.5967 21.3667 93.0234 20.92 92.5967 20.36C92.1834 19.8 91.9567 19.18 91.9167 18.5H94.7367C94.7901 18.9267 94.9967 19.28 95.3567 19.56C95.7301 19.84 96.1901 19.98 96.7367 19.98C97.2701 19.98 97.6834 19.8733 97.9767 19.66C98.2834 19.4467 98.4367 19.1733 98.4367 18.84C98.4367 18.48 98.2501 18.2133 97.8767 18.04C97.5167 17.8533 96.9367 17.6533 96.1367 17.44C95.3101 17.24 94.6301 17.0333 94.0967 16.82C93.5767 16.6067 93.1234 16.28 92.7367 15.84C92.3634 15.4 92.1767 14.8067 92.1767 14.06C92.1767 13.4467 92.3501 12.8867 92.6967 12.38C93.0567 11.8733 93.5634 11.4733 94.2167 11.18C94.8834 10.8867 95.6634 10.74 96.5567 10.74C97.8767 10.74 98.9301 11.0733 99.7167 11.74C100.503 12.3933 100.937 13.28 101.017 14.4H98.3367C98.2967 13.96 98.1101 13.6133 97.7767 13.36C97.4567 13.0933 97.0234 12.96 96.4767 12.96C95.9701 12.96 95.5767 13.0533 95.2967 13.24C95.0301 13.4267 94.8967 13.6867 94.8967 14.02C94.8967 14.3933 95.0834 14.68 95.4567 14.88C95.8301 15.0667 96.4101 15.26 97.1967 15.46C97.9967 15.66 98.6567 15.8667 99.1767 16.08C99.6967 16.2933 100.143 16.6267 100.517 17.08C100.903 17.52 101.103 18.1067 101.117 18.84C101.117 19.48 100.937 20.0533 100.577 20.56C100.23 21.0667 99.7234 21.4667 99.0567 21.76C98.4034 22.04 97.6367 22.18 96.7567 22.18ZM109.975 22L106.215 17.28V22H103.415V7.2H106.215V15.62L109.935 10.92H113.575L108.695 16.48L113.615 22H109.975Z" fill="#3867D6"/>
</svg>
