<svg width="21" height="26" viewBox="0 0 21 26" fill="none" xmlns="http://www.w3.org/2000/svg">
<path d="M10.7856 5.26953C13.5591 5.26953 15.9224 6.24609 17.8755 8.19922C19.8286 10.1523 20.8052 12.4961 20.8052 15.2305C20.8052 18.0039 19.8091 20.3672 17.8169 22.3203C15.8638 24.2734 13.52 25.25 10.7856 25.25C8.05127 25.25 5.68799 24.2734 3.6958 22.3203C1.74268 20.3672 0.766113 18.0039 0.766113 15.2305H3.28564C3.28564 17.3008 4.0083 19.0781 5.45361 20.5625C6.93799 22.0078 8.71533 22.7305 10.7856 22.7305C12.856 22.7305 14.6138 22.0078 16.0591 20.5625C17.5435 19.0781 18.2856 17.3008 18.2856 15.2305C18.2856 13.1602 17.5435 11.4023 16.0591 9.95703C14.6138 8.47266 12.856 7.73047 10.7856 7.73047V12.7695L4.51611 6.5L10.7856 0.230469V5.26953Z" fill="black"/>
</svg>
