<svg width="474" height="459" viewBox="0 0 474 459" fill="none" xmlns="http://www.w3.org/2000/svg">
<g clip-path="url(#clip0_7514_2311)">
<path d="M443.808 8.5918H248.733V238.027H443.808V8.5918Z" fill="#1B82FB" stroke="#1B82FB" stroke-width="1.5" stroke-linecap="round" stroke-linejoin="round"/>
<path d="M443.808 0.505371H248.733V229.941H443.808V0.505371Z" fill="white" stroke="#1B82FB" stroke-width="1.5" stroke-linecap="round" stroke-linejoin="round"/>
<path d="M303.61 28.0703H273.706V57.9743H303.61V28.0703Z" fill="#FCFCFC" stroke="black" stroke-width="1.5" stroke-linecap="round" stroke-linejoin="round"/>
<path d="M280.677 43.3684L285.768 48.4594L296.641 37.5859" stroke="black" stroke-width="1.5" stroke-linecap="round" stroke-linejoin="round"/>
<path d="M318.924 33.6079H417.015" stroke="black" stroke-width="1.5" stroke-linecap="round" stroke-linejoin="round"/>
<path d="M318.924 51.0112H365.948" stroke="black" stroke-width="1.5" stroke-linecap="round" stroke-linejoin="round"/>
<path d="M303.61 76.5884H273.706V106.492H303.61V76.5884Z" fill="#FCFCFC" stroke="black" stroke-width="1.5" stroke-linecap="round" stroke-linejoin="round"/>
<path d="M318.924 82.1265H417.015" stroke="black" stroke-width="1.5" stroke-linecap="round" stroke-linejoin="round"/>
<path d="M318.924 99.5298H365.948" stroke="black" stroke-width="1.5" stroke-linecap="round" stroke-linejoin="round"/>
<path d="M303.61 124.264H273.706V154.168H303.61V124.264Z" fill="#FCFCFC" stroke="black" stroke-width="1.5" stroke-linecap="round" stroke-linejoin="round"/>
<path d="M318.924 129.801H417.015" stroke="black" stroke-width="1.5" stroke-linecap="round" stroke-linejoin="round"/>
<path d="M318.924 147.204H365.948" stroke="black" stroke-width="1.5" stroke-linecap="round" stroke-linejoin="round"/>
<path d="M303.61 172.782H273.706V202.686H303.61V172.782Z" fill="#FCFCFC" stroke="black" stroke-width="1.5" stroke-linecap="round" stroke-linejoin="round"/>
<path d="M318.924 178.319H417.015" stroke="black" stroke-width="1.5" stroke-linecap="round" stroke-linejoin="round"/>
<path d="M318.924 195.722H365.948" stroke="black" stroke-width="1.5" stroke-linecap="round" stroke-linejoin="round"/>
<path d="M280.677 91.8864L285.768 96.9775L296.641 86.104" stroke="black" stroke-width="1.5" stroke-linecap="round" stroke-linejoin="round"/>
<path d="M280.677 139.835L285.768 144.926L296.641 134.054" stroke="black" stroke-width="1.5" stroke-linecap="round" stroke-linejoin="round"/>
<path d="M280.677 188.354L285.768 193.445L296.641 182.572" stroke="black" stroke-width="1.5" stroke-linecap="round" stroke-linejoin="round"/>
<path d="M294.84 463.084L243.685 463.347L241.8 432.83L270.424 432.15C270.424 432.15 272.294 449.947 282.562 450.746C298.767 452.012 294.84 463.084 294.84 463.084Z" fill="white" stroke="black" stroke-width="1.5" stroke-linecap="round" stroke-linejoin="round"/>
<path d="M93.4323 135.793C100.894 135.793 106.943 129.744 106.943 122.282C106.943 114.821 100.894 108.771 93.4323 108.771C85.9704 108.771 79.9214 114.821 79.9214 122.282C79.9214 129.744 85.9704 135.793 93.4323 135.793Z" fill="black"/>
<path d="M76.6794 133.194C83.1234 133.194 88.3474 127.97 88.3474 121.526C88.3474 115.082 83.1234 109.858 76.6794 109.858C70.2354 109.858 65.0115 115.082 65.0115 121.526C65.0115 127.97 70.2354 133.194 76.6794 133.194Z" fill="black"/>
<path d="M71.68 162.648C83.5539 162.648 93.1796 153.022 93.1796 141.149C93.1796 129.275 83.5539 119.649 71.68 119.649C59.8061 119.649 50.1804 129.275 50.1804 141.149C50.1804 153.022 59.8061 162.648 71.68 162.648Z" fill="black"/>
<path d="M65.8032 164.099C63.8524 160.023 62.4919 157.303 61.1536 153.243C59.4123 142.615 68.4744 128.619 79.5332 128.328C91.063 128.026 92.2982 130.968 93.8757 132.747C96.6224 135.845 104.52 154.921 103.621 160.142C103.02 163.633 100.672 166.765 95.9923 169.618L100.073 180.284C100.073 180.284 105.04 190.543 93.0152 195.206C78.701 200.756 75.8148 189.031 75.8148 189.031C75.8148 189.031 66.8248 165.221 65.9057 164.053C65.8713 164.067 65.8194 164.133 65.8032 164.099Z" fill="white" stroke="black" stroke-width="1.5" stroke-linecap="round" stroke-linejoin="round"/>
<path d="M88.0387 155.139C88.0387 155.139 89.8629 162.847 86.1331 166.561C82.4032 170.274 75.2097 174.496 69.2029 172.809C61.5229 170.651 52.3004 150.186 52.3004 150.186L70.3384 140.831L84.1384 145.026L88.0401 155.139L88.0387 155.139Z" fill="black"/>
<path d="M98.6379 131.846L89.4295 135.786C89.4295 135.786 92.0381 141.693 87.9497 143.886L90.1297 149.331L86.4025 150.799L61.0201 152.614L55.4109 133.053L69.7952 120.889L89.193 119.954L98.6379 131.847V131.846Z" fill="black"/>
<path d="M99.3401 145.213L103.087 147.422C103.577 147.646 103.682 148.297 103.287 148.664L101.049 150.166" fill="white"/>
<path d="M99.3401 145.213L103.087 147.422C103.577 147.646 103.682 148.297 103.287 148.664L101.049 150.166" stroke="black" stroke-width="1.5" stroke-linecap="round" stroke-linejoin="round"/>
<path d="M98.2404 142.125L98.2121 142.028C98.1649 141.831 98.0746 141.659 97.9405 141.513C97.8334 141.348 97.6919 141.217 97.5153 141.122C97.3415 141.011 97.1535 140.951 96.9513 140.942C96.7498 140.897 96.5483 140.905 96.3468 140.969L95.985 141.122C95.7572 141.257 95.5759 141.438 95.4412 141.666L95.2882 142.027C95.2161 142.296 95.2161 142.565 95.2882 142.833L95.3165 142.93C95.3637 143.128 95.454 143.3 95.5881 143.446C95.6952 143.611 95.8367 143.741 96.0133 143.837C96.1871 143.947 96.3751 144.007 96.5773 144.017C96.7788 144.062 96.9803 144.053 97.1818 143.99L97.5436 143.837C97.7714 143.702 97.9527 143.521 98.0874 143.293L98.2404 142.931C98.3125 142.662 98.3125 142.393 98.2404 142.125Z" fill="black"/>
<path d="M96.2929 137.245C96.2929 137.245 92.745 138.72 92.9633 141.749L96.2929 137.245Z" fill="white"/>
<path d="M96.2929 137.245C96.2929 137.245 92.745 138.72 92.9633 141.749" stroke="black" stroke-width="1.5" stroke-linecap="round" stroke-linejoin="round"/>
<path d="M90.2922 156.469C87.2881 157.634 83.8959 156.11 82.7153 153.066C81.5859 150.153 82.8952 146.907 85.6425 145.612" fill="white"/>
<path d="M90.2922 156.469C87.2881 157.634 83.8959 156.11 82.7153 153.066C81.5859 150.153 82.8952 146.907 85.6425 145.612" stroke="black" stroke-width="1.5" stroke-linecap="round" stroke-linejoin="round"/>
<path d="M91.0907 170.816C94.0692 170.791 95.9917 169.618 95.9917 169.618" stroke="black" stroke-width="1.5" stroke-linecap="round" stroke-linejoin="round"/>
<path d="M98.3279 175.744L90.9087 171.16L96.0503 169.708L98.3279 175.744Z" fill="black"/>
<path d="M95.9722 154.254C95.9722 154.254 97.8502 156.754 101.209 154.901L95.9722 154.254Z" fill="white"/>
<path d="M95.9722 154.254C95.9722 154.254 97.8502 156.754 101.209 154.901" stroke="black" stroke-width="1.5" stroke-linecap="round" stroke-linejoin="round"/>
<path d="M189.433 252.131L206.409 192.714C206.731 191.587 207.761 190.809 208.934 190.809H292.374C294.485 190.809 296.013 192.824 296.119 194.857L279.056 255.5L277.455 255.687L271.868 255.953" fill="black"/>
<path d="M189.433 252.131L206.409 192.714C206.731 191.587 207.761 190.809 208.934 190.809H292.374C294.485 190.809 296.013 192.824 296.119 194.857L279.056 255.5L277.455 255.687L271.868 255.953" stroke="black" stroke-width="1.5" stroke-linecap="round" stroke-linejoin="round"/>
<path d="M277.035 253.478L293.803 193.5C294.181 192.149 293.165 190.809 291.761 190.809H206.913C205.74 190.809 204.71 191.587 204.388 192.714L187.412 252.131" fill="white"/>
<path d="M277.035 253.478L293.803 193.5C294.181 192.149 293.165 190.809 291.761 190.809H206.913C205.74 190.809 204.71 191.587 204.388 192.714L187.412 252.131" stroke="black" stroke-width="1.5" stroke-linecap="round" stroke-linejoin="round"/>
<path d="M275.818 248.825L291.421 194.472C291.634 193.722 291.071 192.977 290.292 192.977H207.532C206.804 192.977 206.162 193.458 205.959 194.158L189.935 248.762L275.818 248.825Z" fill="white" stroke="black" stroke-width="1.5" stroke-linecap="round" stroke-linejoin="round"/>
<path d="M392.737 254.606H28.127V266.731H392.737V254.606Z" fill="black" stroke="black" stroke-width="1.5" stroke-linecap="round" stroke-linejoin="round"/>
<path d="M233.234 250.109H231.886C230.77 250.109 229.865 251.014 229.865 252.13C229.865 253.247 230.77 254.152 231.886 254.152H233.234C234.351 254.152 235.256 253.247 235.256 252.13C235.256 251.014 234.351 250.109 233.234 250.109Z" fill="white" stroke="black" stroke-width="1.5" stroke-linecap="round" stroke-linejoin="round"/>
<path d="M239.973 250.109H238.625C237.508 250.109 236.603 251.014 236.603 252.13C236.603 253.247 237.508 254.152 238.625 254.152H239.973C241.089 254.152 241.994 253.247 241.994 252.13C241.994 251.014 241.089 250.109 239.973 250.109Z" fill="white" stroke="black" stroke-width="1.5" stroke-linecap="round" stroke-linejoin="round"/>
<path d="M246.711 250.109H245.364C244.247 250.109 243.342 251.014 243.342 252.13C243.342 253.247 244.247 254.152 245.364 254.152H246.711C247.828 254.152 248.733 253.247 248.733 252.13C248.733 251.014 247.828 250.109 246.711 250.109Z" fill="white" stroke="black" stroke-width="1.5" stroke-linecap="round" stroke-linejoin="round"/>
<path d="M182.02 250.109H180.673C179.556 250.109 178.651 251.014 178.651 252.13C178.651 253.247 179.556 254.152 180.673 254.152H182.02C183.137 254.152 184.042 253.247 184.042 252.13C184.042 251.014 183.137 250.109 182.02 250.109Z" fill="white" stroke="black" stroke-width="1.5" stroke-linecap="round" stroke-linejoin="round"/>
<path d="M175.282 250.109H173.934C172.818 250.109 171.913 251.014 171.913 252.13C171.913 253.247 172.818 254.152 173.934 254.152H175.282C176.398 254.152 177.303 253.247 177.303 252.13C177.303 251.014 176.398 250.109 175.282 250.109Z" fill="white" stroke="black" stroke-width="1.5" stroke-linecap="round" stroke-linejoin="round"/>
<path d="M188.759 250.109H187.411C186.295 250.109 185.39 251.014 185.39 252.13C185.39 253.247 186.295 254.152 187.411 254.152H188.759C189.876 254.152 190.781 253.247 190.781 252.13C190.781 251.014 189.876 250.109 188.759 250.109Z" fill="white" stroke="black" stroke-width="1.5" stroke-linecap="round" stroke-linejoin="round"/>
<path d="M222.452 250.109H221.105C219.988 250.109 219.083 251.014 219.083 252.13C219.083 253.247 219.988 254.152 221.105 254.152H222.452C223.569 254.152 224.474 253.247 224.474 252.13C224.474 251.014 223.569 250.109 222.452 250.109Z" fill="white" stroke="black" stroke-width="1.5" stroke-linecap="round" stroke-linejoin="round"/>
<path d="M215.714 254.152H214.366C213.249 254.152 192.128 253.247 192.128 252.13C192.128 251.014 193.033 250.109 194.15 250.109H215.714C216.83 250.109 217.735 251.014 217.735 252.13C217.735 253.247 216.83 254.152 215.714 254.152Z" fill="white" stroke="black" stroke-width="1.5" stroke-linecap="round" stroke-linejoin="round"/>
<path d="M193.15 251.372H277.709V253.888C277.709 254.452 277.252 254.91 276.688 254.91H193.149C192.586 254.91 192.128 254.452 192.128 253.888V252.393C192.128 251.83 192.585 251.372 193.149 251.372L193.15 251.372Z" fill="black" stroke="black" stroke-width="1.5" stroke-linecap="round" stroke-linejoin="round"/>
<path d="M252.088 251.373H169.231C168.479 251.373 167.869 251.982 167.869 252.734V253.548C167.869 254.301 168.479 254.91 169.231 254.91H252.088C252.84 254.91 253.45 254.301 253.45 253.548V252.734C253.45 251.982 252.84 251.373 252.088 251.373Z" fill="white" stroke="black" stroke-width="1.5" stroke-linecap="round" stroke-linejoin="round"/>
<path d="M300.812 267.877L332.122 463.586" stroke="black" stroke-width="1.5" stroke-linecap="round" stroke-linejoin="round"/>
<path d="M368.199 267.877L402.877 463.586" stroke="black" stroke-width="1.5" stroke-linecap="round" stroke-linejoin="round"/>
<path d="M37.8407 267.877L21.137 464.495" stroke="black" stroke-width="1.5" stroke-linecap="round" stroke-linejoin="round"/>
<path d="M311.873 254.606H14.6497V266.731H311.873V254.606Z" fill="white" stroke="black" stroke-width="1.5" stroke-linecap="round" stroke-linejoin="round"/>
<path d="M361.226 427.229L325.239 463.587L302.327 443.341L322.088 422.62C322.088 422.62 335.994 433.882 343.82 427.186C356.174 416.622 361.226 427.229 361.226 427.229Z" fill="white" stroke="black" stroke-width="1.5" stroke-linecap="round" stroke-linejoin="round"/>
<path d="M304.822 456.632L152.959 321.604H104.959C90.0186 321.604 74.3917 308.958 74.8688 288.872C75.2233 273.943 77.1788 274.36 77.1788 274.36L169.212 274.243C179.235 274.243 187.94 279.976 192.236 288.315L331.103 423.629L304.822 456.632Z" fill="black" stroke="black" stroke-width="1.5" stroke-linecap="round" stroke-linejoin="round"/>
<path d="M281.237 443.044L244.841 299.759C241.993 287.69 229.132 271.949 216.193 271.949H109.641V322.488H199.554L236.302 450.553L281.236 443.044H281.237Z" fill="black"/>
<path d="M80.633 295.871L160.802 271.981C156.604 256.193 142.058 202.809 138.784 195.515C138.784 195.515 132.714 171.145 109.534 178.552L67.1928 192.106C67.1928 192.106 53.3833 196.935 54.0215 208.287C54.4386 215.718 80.633 295.871 80.633 295.871Z" fill="#1B82FB" stroke="black" stroke-width="1.5" stroke-linecap="round" stroke-linejoin="round"/>
<path d="M82.4518 137.985L74.7017 132.611L44.6737 145.174L49.0343 160.806L82.4518 137.985Z" fill="white"/>
<path d="M43.8158 143.124C43.8158 143.124 55.1455 136.378 60.3484 134.02C69.3215 129.955 74.8512 128.216 78.0272 129.861C78.7064 130.214 79.8587 131.683 74.7023 132.611C71.647 133.161 67.3788 138.055 67.3788 138.055" fill="white"/>
<path d="M43.8158 143.124C43.8158 143.124 55.1455 136.378 60.3484 134.02C69.3215 129.955 74.8512 128.216 78.0272 129.861C78.7064 130.214 79.8587 131.683 74.7023 132.611C71.647 133.161 67.3788 138.055 67.3788 138.055" stroke="black" stroke-width="1.5" stroke-linecap="round" stroke-linejoin="round"/>
<path d="M46.8684 165.098C46.8684 165.098 61.4818 157.457 66.49 155.206C71.4361 152.982 76.6525 152.16 76.9449 150.288C77.4827 146.842 64.8646 149.269 61.1132 151.106" fill="white"/>
<path d="M46.8684 165.098C46.8684 165.098 61.4818 157.457 66.49 155.206C71.4361 152.982 76.6525 152.16 76.9449 150.288C77.4827 146.842 64.8646 149.269 61.1132 151.106" stroke="black" stroke-width="1.5" stroke-linecap="round" stroke-linejoin="round"/>
<path d="M42.4115 144.975L48.2377 163.748L68.3883 150.316L80.5414 140.243L72.6073 130.009L42.4115 144.975Z" fill="white"/>
<path d="M67.0439 135.646C72.2826 132.104 81.1472 131.01 82.6971 131.41C84.4087 131.851 84.4788 134.106 81.1917 134.66C79.8864 134.881 78.4909 135.752 76.4221 136.122" fill="white"/>
<path d="M67.0439 135.646C72.2826 132.104 81.1472 131.01 82.6971 131.41C84.4087 131.851 84.4788 134.106 81.1917 134.66C79.8864 134.881 78.4909 135.752 76.4221 136.122" stroke="black" stroke-width="1.5" stroke-linecap="round" stroke-linejoin="round"/>
<path d="M68.7731 139.253C73.4557 136.502 78.2739 134.563 81.7517 134.356C82.8049 134.293 84.8872 134.204 85.6264 134.804C87.4499 136.283 84.0462 137.75 80.6324 138.586" fill="white"/>
<path d="M68.7731 139.253C73.4557 136.502 78.2739 134.563 81.7517 134.356C82.8049 134.293 84.8872 134.204 85.6264 134.804C87.4499 136.283 84.0462 137.75 80.6324 138.586" stroke="black" stroke-width="1.5" stroke-linecap="round" stroke-linejoin="round"/>
<path d="M65.0095 152.359C65.0095 152.359 73.6316 146.517 83.9909 140.421C84.654 140.031 85.7558 137.855 82.4518 137.984C78.2759 138.148 70.8 143.227 70.8 143.227" fill="white"/>
<path d="M65.0095 152.359C65.0095 152.359 73.6316 146.517 83.9909 140.421C84.654 140.031 85.7558 137.855 82.4518 137.984C78.2759 138.148 70.8 143.227 70.8 143.227" stroke="black" stroke-width="1.5" stroke-linecap="round" stroke-linejoin="round"/>
<path d="M61.1941 145.352L65.0796 136.759L97.2956 132.101L101.589 147.752L61.1941 145.352Z" fill="white"/>
<path d="M96.9776 129.901C96.9776 129.901 83.7915 129.938 78.1169 130.59C68.3304 131.715 62.6928 133.065 60.8148 136.109C60.4131 136.76 60.18 138.613 65.0803 136.759C67.984 135.66 74.1599 137.664 74.1599 137.664" fill="white"/>
<path d="M96.9776 129.901C96.9776 129.901 83.7915 129.938 78.1169 130.59C68.3304 131.715 62.6928 133.065 60.8148 136.109C60.4131 136.76 60.18 138.613 65.0803 136.759C67.984 135.66 74.1599 137.664 74.1599 137.664" stroke="black" stroke-width="1.5" stroke-linecap="round" stroke-linejoin="round"/>
<path d="M105.653 150.319C105.653 150.319 89.1905 151.277 83.7376 151.919C78.3514 152.553 73.4545 154.53 72.2415 153.073C70.009 150.394 82.0799 145.99 86.2424 145.637" fill="white"/>
<path d="M105.653 150.319C105.653 150.319 89.1905 151.277 83.7376 151.919C78.3514 152.553 73.4545 154.53 72.2415 153.073C70.009 150.394 82.0799 145.99 86.2424 145.637" stroke="black" stroke-width="1.5" stroke-linecap="round" stroke-linejoin="round"/>
<path d="M99.1333 130.767L103.785 149.866L79.596 148.701L63.994 146.307L65.5392 133.45L99.1333 130.767Z" fill="white"/>
<path d="M73.2091 135.426C66.8957 135.08 58.7284 138.698 57.6044 139.837C56.3632 141.095 57.4622 143.066 60.5667 141.851C61.7992 141.37 63.4448 141.4 65.4091 140.653" fill="white"/>
<path d="M73.2091 135.426C66.8957 135.08 58.7284 138.698 57.6044 139.837C56.3632 141.095 57.4622 143.066 60.5667 141.851C61.7992 141.37 63.4448 141.4 65.4091 140.653" stroke="black" stroke-width="1.5" stroke-linecap="round" stroke-linejoin="round"/>
<path d="M73.5791 139.409C68.1491 139.456 63.019 140.269 59.9293 141.878C58.9933 142.366 57.1617 143.36 56.8356 144.254C56.0323 146.46 59.7056 145.969 63.0634 144.931" fill="white"/>
<path d="M73.5791 139.409C68.1491 139.456 63.019 140.269 59.9293 141.878C58.9933 142.366 57.1617 143.36 56.8356 144.254C56.0323 146.46 59.7056 145.969 63.0634 144.931" stroke="black" stroke-width="1.5" stroke-linecap="round" stroke-linejoin="round"/>
<path d="M83.5442 148.716C83.5442 148.716 73.1458 148.137 61.1267 148.232C60.3579 148.238 58.2938 146.938 61.1941 145.351C64.8606 143.345 73.8843 143.859 73.8843 143.859" fill="white"/>
<path d="M83.5442 148.716C83.5442 148.716 73.1458 148.137 61.1267 148.232C60.3579 148.238 58.2938 146.938 61.1941 145.351C64.8606 143.345 73.8843 143.859 73.8843 143.859" stroke="black" stroke-width="1.5" stroke-linecap="round" stroke-linejoin="round"/>
<path d="M134.867 205.631L172.367 148.653L172.774 148.037C174.689 145.13 175.716 141.601 175.491 137.859C174.937 128.655 167.027 121.641 157.823 122.194L94.3818 126.008L94.8556 154.626L126.986 155.492L110.62 180.359" fill="#1B82FB"/>
<path d="M134.867 205.631L172.367 148.653L172.774 148.037C174.689 145.13 175.716 141.601 175.491 137.859C174.937 128.655 167.027 121.641 157.823 122.194L94.3818 126.008L94.8556 154.626L126.986 155.492L110.62 180.359" stroke="black" stroke-width="1.5" stroke-linecap="round" stroke-linejoin="round"/>
<path d="M69.5587 193.433L43.5213 177.367L62.4131 162.121L45.7134 138.877L8.13072 165.379C6.12328 166.669 4.29711 168.457 2.96084 170.623C-1.81483 178.362 0.588168 188.508 8.32749 193.283L9.12669 193.777L56.0417 225.219" fill="#1B82FB"/>
<path d="M69.5587 193.433L43.5213 177.367L62.4131 162.121L45.7134 138.877L8.13072 165.379C6.12328 166.669 4.29711 168.457 2.96084 170.623C-1.81483 178.362 0.588168 188.508 8.32749 193.283L9.12669 193.777L56.0417 225.219" stroke="black" stroke-width="1.5" stroke-linecap="round" stroke-linejoin="round"/>
<path d="M300.555 228.494H281.17V254.633H300.555V228.494Z" fill="#1B82FB" stroke="black" stroke-width="1.5" stroke-linecap="round" stroke-linejoin="round"/>
<path d="M308.655 239.636C308.655 243.666 305.857 246.929 302.404 246.929C301.761 246.929 301.141 246.816 300.555 246.603V232.669C301.14 232.46 301.761 232.346 302.404 232.346C305.857 232.346 308.655 235.609 308.655 239.636Z" stroke="black" stroke-width="1.5" stroke-linecap="round" stroke-linejoin="round"/>
<path d="M215.308 379.008L199.554 322.489H181.842" stroke="white" stroke-width="1.5" stroke-linecap="round" stroke-linejoin="round"/>
<path d="M258.571 352.211L278.877 433.901" stroke="white" stroke-width="1.5" stroke-linecap="round" stroke-linejoin="round"/>
<path d="M137.506 317.115L112.997 218.33C112.458 216.008 110.389 214.365 108.006 214.365H32.5994C29.3042 214.365 26.8661 217.431 27.6067 220.641L53.7883 327.355C54.3247 329.68 56.3948 331.327 58.781 331.327H186.864C189.693 331.327 191.987 329.033 191.987 326.204C191.987 323.374 189.693 321.08 186.864 321.08H142.497C140.114 321.08 138.046 319.437 137.506 317.116L137.506 317.115Z" fill="white" stroke="black" stroke-width="1.5" stroke-linecap="round" stroke-linejoin="round"/>
<path d="M68.9779 331.327L56.9703 463.66" stroke="black" stroke-width="1.5" stroke-linecap="round" stroke-linejoin="round"/>
<path d="M174.054 331.327L198.575 462.928" stroke="black" stroke-width="1.5" stroke-linecap="round" stroke-linejoin="round"/>
<path d="M126.884 331.327L151.404 462.928" stroke="black" stroke-width="1.5" stroke-linecap="round" stroke-linejoin="round"/>
<path d="M440.51 464.021H416.796L413.03 385.803H444.276L440.51 464.021Z" fill="white" stroke="black" stroke-width="1.5" stroke-linecap="round" stroke-linejoin="round"/>
<path d="M430.864 385.804C430.864 385.804 432.19 347.482 459.163 335.102C459.163 335.102 460.268 343.724 452.973 351.02C445.677 358.316 444.711 358.991 444.277 366.938C443.945 373.018 438.925 374.682 436.17 374.455C435.246 374.379 432.484 374.048 432.484 374.048" fill="white"/>
<path d="M430.864 385.804C430.864 385.804 432.19 347.482 459.163 335.102C459.163 335.102 460.268 343.724 452.973 351.02C445.677 358.316 444.711 358.991 444.277 366.938C443.945 373.018 438.925 374.682 436.17 374.455C435.246 374.379 432.484 374.048 432.484 374.048" stroke="black" stroke-width="1.5" stroke-linecap="round" stroke-linejoin="round"/>
<path d="M426.415 386.081C426.415 386.081 425.504 370.298 425.079 365.047C423.908 350.578 415.588 327.694 393.623 316.241C393.623 316.241 393.066 324.915 400.81 331.734C408.553 338.553 409.992 339.126 410.497 347.069C411.002 355.011 419.064 354.057 419.064 354.057L422.965 353.64C422.965 353.64 424.207 357.09 425.079 365.047" fill="white"/>
<path d="M426.415 386.081C426.415 386.081 425.504 370.298 425.079 365.047M425.079 365.047C423.908 350.578 415.588 327.694 393.623 316.241C393.623 316.241 393.066 324.915 400.81 331.734C408.553 338.553 409.992 339.126 410.497 347.069C411.002 355.011 419.064 354.057 419.064 354.057L422.965 353.64C422.965 353.64 424.207 357.09 425.079 365.047Z" stroke="black" stroke-width="1.5" stroke-linecap="round" stroke-linejoin="round"/>
<path d="M428.653 385.804C428.653 383.151 429.243 330.975 439.265 311.52" stroke="black" stroke-width="1.5" stroke-linecap="round" stroke-linejoin="round"/>
<path d="M439.265 315.516C441.382 315.516 443.097 313.8 443.097 311.684C443.097 309.567 441.382 307.852 439.265 307.852C437.149 307.852 435.433 309.567 435.433 311.684C435.433 313.8 437.149 315.516 439.265 315.516Z" fill="white" stroke="black" stroke-width="1.5" stroke-linecap="round" stroke-linejoin="round"/>
<path d="M230.276 206.04H222.375L224.641 198.138H232.543L230.276 206.04Z" fill="#FCFCFC" stroke="black" stroke-width="1.5" stroke-linecap="round" stroke-linejoin="round"/>
<path d="M225.323 202.18L226.282 203.526L229.98 200.653" stroke="black" stroke-width="1.5" stroke-linecap="round" stroke-linejoin="round"/>
<path d="M236.169 199.602H262.089" stroke="black" stroke-width="1.5" stroke-linecap="round" stroke-linejoin="round"/>
<path d="M234.851 204.201H247.276" stroke="black" stroke-width="1.5" stroke-linecap="round" stroke-linejoin="round"/>
<path d="M226.601 218.861H218.699L220.964 210.959H228.866L226.601 218.861Z" fill="#FCFCFC" stroke="black" stroke-width="1.5" stroke-linecap="round" stroke-linejoin="round"/>
<path d="M232.493 212.422H258.413" stroke="black" stroke-width="1.5" stroke-linecap="round" stroke-linejoin="round"/>
<path d="M231.175 217.021H243.6" stroke="black" stroke-width="1.5" stroke-linecap="round" stroke-linejoin="round"/>
<path d="M222.988 231.458H215.086L217.352 223.556H225.254L222.988 231.458Z" fill="#FCFCFC" stroke="black" stroke-width="1.5" stroke-linecap="round" stroke-linejoin="round"/>
<path d="M228.881 225.019H254.8" stroke="black" stroke-width="1.5" stroke-linecap="round" stroke-linejoin="round"/>
<path d="M227.562 229.618H239.987" stroke="black" stroke-width="1.5" stroke-linecap="round" stroke-linejoin="round"/>
<path d="M219.312 244.279H211.41L213.676 236.376H221.578L219.312 244.279Z" fill="#FCFCFC" stroke="black" stroke-width="1.5" stroke-linecap="round" stroke-linejoin="round"/>
<path d="M225.204 237.84H251.124" stroke="black" stroke-width="1.5" stroke-linecap="round" stroke-linejoin="round"/>
<path d="M223.886 242.439H236.312" stroke="black" stroke-width="1.5" stroke-linecap="round" stroke-linejoin="round"/>
<path d="M221.647 215.001L222.607 216.346L226.303 213.473" stroke="black" stroke-width="1.5" stroke-linecap="round" stroke-linejoin="round"/>
<path d="M218.014 227.671L218.974 229.016L222.671 226.143" stroke="black" stroke-width="1.5" stroke-linecap="round" stroke-linejoin="round"/>
<path d="M214.338 240.491L215.297 241.837L218.994 238.963" stroke="black" stroke-width="1.5" stroke-linecap="round" stroke-linejoin="round"/>
<path d="M445.043 251.711C460.592 251.711 473.197 239.105 473.197 223.556C473.197 208.007 460.592 195.401 445.043 195.401C429.493 195.401 416.888 208.007 416.888 223.556C416.888 239.105 429.493 251.711 445.043 251.711Z" fill="white" stroke="black" stroke-width="1.5" stroke-linecap="round" stroke-linejoin="round"/>
<path d="M432.173 224.113L440.382 232.322L457.913 214.791" stroke="black" stroke-width="1.5" stroke-linecap="round" stroke-linejoin="round"/>
</g>
<defs>
<clipPath id="clip0_7514_2311">
<rect width="473.703" height="458.34" fill="white"/>
</clipPath>
</defs>
</svg>
