<svg width="201" height="33" viewBox="0 0 201 33" fill="none" xmlns="http://www.w3.org/2000/svg">
<path d="M23.953 8.564V32H16.771V28.808C16.043 29.844 15.049 30.684 13.789 31.328C12.557 31.944 11.185 32.252 9.67303 32.252C7.88103 32.252 6.29903 31.86 4.92703 31.076C3.55503 30.264 2.49103 29.102 1.73503 27.59C0.979031 26.078 0.601031 24.3 0.601031 22.256V8.564H7.74103V21.29C7.74103 22.858 8.14703 24.076 8.95903 24.944C9.77103 25.812 10.863 26.246 12.235 26.246C13.635 26.246 14.741 25.812 15.553 24.944C16.365 24.076 16.771 22.858 16.771 21.29V8.564H23.953ZM50.3218 2.516V8.27H42.5098V32H35.3278V8.27H27.5158V2.516H50.3218ZM52.4983 20.24C52.4983 17.832 52.9463 15.718 53.8423 13.898C54.7663 12.078 56.0123 10.678 57.5803 9.698C59.1483 8.718 60.8983 8.228 62.8303 8.228C64.4823 8.228 65.9243 8.564 67.1563 9.236C68.4163 9.908 69.3823 10.79 70.0543 11.882V8.564H77.2363V32H70.0543V28.682C69.3543 29.774 68.3743 30.656 67.1143 31.328C65.8823 32 64.4403 32.336 62.7883 32.336C60.8843 32.336 59.1483 31.846 57.5803 30.866C56.0123 29.858 54.7663 28.444 53.8423 26.624C52.9463 24.776 52.4983 22.648 52.4983 20.24ZM70.0543 20.282C70.0543 18.49 69.5503 17.076 68.5423 16.04C67.5623 15.004 66.3583 14.486 64.9303 14.486C63.5023 14.486 62.2843 15.004 61.2763 16.04C60.2963 17.048 59.8063 18.448 59.8063 20.24C59.8063 22.032 60.2963 23.46 61.2763 24.524C62.2843 25.56 63.5023 26.078 64.9303 26.078C66.3583 26.078 67.5623 25.56 68.5423 24.524C69.5503 23.488 70.0543 22.074 70.0543 20.282ZM91.9661 32.336C89.9221 32.336 88.1021 31.986 86.5061 31.286C84.9101 30.586 83.6501 29.634 82.7261 28.43C81.8021 27.198 81.2841 25.826 81.1721 24.314H88.2701C88.3541 25.126 88.7321 25.784 89.4041 26.288C90.0761 26.792 90.9021 27.044 91.8821 27.044C92.7781 27.044 93.4641 26.876 93.9401 26.54C94.4441 26.176 94.6961 25.714 94.6961 25.154C94.6961 24.482 94.3461 23.992 93.6461 23.684C92.9461 23.348 91.8121 22.984 90.2441 22.592C88.5641 22.2 87.1641 21.794 86.0441 21.374C84.9241 20.926 83.9581 20.24 83.1461 19.316C82.3341 18.364 81.9281 17.09 81.9281 15.494C81.9281 14.15 82.2921 12.932 83.0201 11.84C83.7761 10.72 84.8681 9.838 86.2961 9.194C87.7521 8.55 89.4741 8.228 91.4621 8.228C94.4021 8.228 96.7121 8.956 98.3921 10.412C100.1 11.868 101.08 13.8 101.332 16.208H94.6961C94.5841 15.396 94.2201 14.752 93.6041 14.276C93.0161 13.8 92.2321 13.562 91.2521 13.562C90.4121 13.562 89.7681 13.73 89.3201 14.066C88.8721 14.374 88.6481 14.808 88.6481 15.368C88.6481 16.04 88.9981 16.544 89.6981 16.88C90.4261 17.216 91.5461 17.552 93.0581 17.888C94.7941 18.336 96.2081 18.784 97.3001 19.232C98.3921 19.652 99.3441 20.352 100.156 21.332C100.996 22.284 101.43 23.572 101.458 25.196C101.458 26.568 101.066 27.8 100.282 28.892C99.5261 29.956 98.4201 30.796 96.9641 31.412C95.5361 32.028 93.8701 32.336 91.9661 32.336ZM120.174 32L113.034 22.172V32H105.852V0.92H113.034V18.098L120.132 8.564H128.994L119.25 20.324L129.078 32H120.174ZM140.253 9.992C140.365 6.996 141.345 4.686 143.193 3.062C145.041 1.438 147.547 0.625998 150.711 0.625998C152.811 0.625998 154.603 0.989999 156.087 1.718C157.599 2.446 158.733 3.44 159.489 4.7C160.273 5.96 160.665 7.374 160.665 8.942C160.665 10.79 160.203 12.302 159.279 13.478C158.355 14.626 157.277 15.41 156.045 15.83V15.998C157.641 16.53 158.901 17.412 159.825 18.644C160.749 19.876 161.211 21.458 161.211 23.39C161.211 25.126 160.805 26.666 159.993 28.01C159.209 29.326 158.047 30.362 156.507 31.118C154.995 31.874 153.189 32.252 151.089 32.252C147.729 32.252 145.041 31.426 143.025 29.774C141.037 28.122 139.987 25.63 139.875 22.298H146.847C146.875 23.53 147.225 24.51 147.897 25.238C148.569 25.938 149.549 26.288 150.837 26.288C151.929 26.288 152.769 25.98 153.357 25.364C153.973 24.72 154.281 23.88 154.281 22.844C154.281 21.5 153.847 20.534 152.979 19.946C152.139 19.33 150.781 19.022 148.905 19.022H147.561V13.184H148.905C150.333 13.184 151.481 12.946 152.349 12.47C153.245 11.966 153.693 11.084 153.693 9.824C153.693 8.816 153.413 8.032 152.853 7.472C152.293 6.912 151.523 6.632 150.543 6.632C149.479 6.632 148.681 6.954 148.149 7.598C147.645 8.242 147.351 9.04 147.267 9.992H140.253ZM169.505 32.336C168.245 32.336 167.209 31.972 166.397 31.244C165.613 30.488 165.221 29.564 165.221 28.472C165.221 27.352 165.613 26.414 166.397 25.658C167.209 24.902 168.245 24.524 169.505 24.524C170.737 24.524 171.745 24.902 172.529 25.658C173.341 26.414 173.747 27.352 173.747 28.472C173.747 29.564 173.341 30.488 172.529 31.244C171.745 31.972 170.737 32.336 169.505 32.336ZM177.285 16.25C177.285 11.434 178.209 7.64 180.057 4.868C181.933 2.096 184.943 0.709997 189.087 0.709997C193.231 0.709997 196.227 2.096 198.075 4.868C199.951 7.64 200.889 11.434 200.889 16.25C200.889 21.122 199.951 24.944 198.075 27.716C196.227 30.488 193.231 31.874 189.087 31.874C184.943 31.874 181.933 30.488 180.057 27.716C178.209 24.944 177.285 21.122 177.285 16.25ZM193.833 16.25C193.833 13.422 193.525 11.252 192.909 9.74C192.293 8.2 191.019 7.43 189.087 7.43C187.155 7.43 185.881 8.2 185.265 9.74C184.649 11.252 184.341 13.422 184.341 16.25C184.341 18.154 184.453 19.736 184.677 20.996C184.901 22.228 185.349 23.236 186.021 24.02C186.721 24.776 187.743 25.154 189.087 25.154C190.431 25.154 191.439 24.776 192.111 24.02C192.811 23.236 193.273 22.228 193.497 20.996C193.721 19.736 193.833 18.154 193.833 16.25Z" fill="#226ED8"/>
</svg>
