<svg width="144" height="24" viewBox="0 0 144 24" fill="none" xmlns="http://www.w3.org/2000/svg">
<path d="M16.8236 6.26V23H11.6936V20.72C11.1736 21.46 10.4636 22.06 9.56359 22.52C8.68359 22.96 7.70359 23.18 6.62359 23.18C5.34359 23.18 4.21359 22.9 3.23359 22.34C2.25359 21.76 1.49359 20.93 0.953594 19.85C0.413594 18.77 0.143594 17.5 0.143594 16.04V6.26H5.24359V15.35C5.24359 16.47 5.53359 17.34 6.11359 17.96C6.69359 18.58 7.47359 18.89 8.45359 18.89C9.45359 18.89 10.2436 18.58 10.8236 17.96C11.4036 17.34 11.6936 16.47 11.6936 15.35V6.26H16.8236ZM35.6584 1.94V6.05H30.0784V23H24.9484V6.05H19.3684V1.94H35.6584ZM37.213 14.6C37.213 12.88 37.533 11.37 38.173 10.07C38.833 8.77 39.723 7.77 40.843 7.07C41.963 6.37 43.213 6.02 44.593 6.02C45.773 6.02 46.803 6.26 47.683 6.74C48.583 7.22 49.273 7.85 49.753 8.63V6.26H54.883V23H49.753V20.63C49.253 21.41 48.553 22.04 47.653 22.52C46.773 23 45.743 23.24 44.563 23.24C43.203 23.24 41.963 22.89 40.843 22.19C39.723 21.47 38.833 20.46 38.173 19.16C37.533 17.84 37.213 16.32 37.213 14.6ZM49.753 14.63C49.753 13.35 49.393 12.34 48.673 11.6C47.973 10.86 47.113 10.49 46.093 10.49C45.073 10.49 44.203 10.86 43.483 11.6C42.783 12.32 42.433 13.32 42.433 14.6C42.433 15.88 42.783 16.9 43.483 17.66C44.203 18.4 45.073 18.77 46.093 18.77C47.113 18.77 47.973 18.4 48.673 17.66C49.393 16.92 49.753 15.91 49.753 14.63ZM65.4044 23.24C63.9444 23.24 62.6444 22.99 61.5044 22.49C60.3644 21.99 59.4644 21.31 58.8044 20.45C58.1444 19.57 57.7744 18.59 57.6944 17.51H62.7644C62.8244 18.09 63.0944 18.56 63.5744 18.92C64.0544 19.28 64.6444 19.46 65.3444 19.46C65.9844 19.46 66.4744 19.34 66.8144 19.1C67.1744 18.84 67.3544 18.51 67.3544 18.11C67.3544 17.63 67.1044 17.28 66.6044 17.06C66.1044 16.82 65.2944 16.56 64.1744 16.28C62.9744 16 61.9744 15.71 61.1744 15.41C60.3744 15.09 59.6844 14.6 59.1044 13.94C58.5244 13.26 58.2344 12.35 58.2344 11.21C58.2344 10.25 58.4944 9.38 59.0144 8.6C59.5544 7.8 60.3344 7.17 61.3544 6.71C62.3944 6.25 63.6244 6.02 65.0444 6.02C67.1444 6.02 68.7944 6.54 69.9944 7.58C71.2144 8.62 71.9144 10 72.0944 11.72H67.3544C67.2744 11.14 67.0144 10.68 66.5744 10.34C66.1544 10 65.5944 9.83 64.8944 9.83C64.2944 9.83 63.8344 9.95 63.5144 10.19C63.1944 10.41 63.0344 10.72 63.0344 11.12C63.0344 11.6 63.2844 11.96 63.7844 12.2C64.3044 12.44 65.1044 12.68 66.1844 12.92C67.4244 13.24 68.4344 13.56 69.2144 13.88C69.9944 14.18 70.6744 14.68 71.2544 15.38C71.8544 16.06 72.1644 16.98 72.1844 18.14C72.1844 19.12 71.9044 20 71.3444 20.78C70.8044 21.54 70.0144 22.14 68.9744 22.58C67.9544 23.02 66.7644 23.24 65.4044 23.24ZM85.5529 23L80.4529 15.98V23H75.3229V0.8H80.4529V13.07L85.5229 6.26H91.8529L84.8929 14.66L91.9129 23H85.5529ZM99.8952 7.28C99.9752 5.14 100.675 3.49 101.995 2.33C103.315 1.17 105.105 0.589999 107.365 0.589999C108.865 0.589999 110.145 0.849999 111.205 1.37C112.285 1.89 113.095 2.6 113.635 3.5C114.195 4.4 114.475 5.41 114.475 6.53C114.475 7.85 114.145 8.93 113.485 9.77C112.825 10.59 112.055 11.15 111.175 11.45V11.57C112.315 11.95 113.215 12.58 113.875 13.46C114.535 14.34 114.865 15.47 114.865 16.85C114.865 18.09 114.575 19.19 113.995 20.15C113.435 21.09 112.605 21.83 111.505 22.37C110.425 22.91 109.135 23.18 107.635 23.18C105.235 23.18 103.315 22.59 101.875 21.41C100.455 20.23 99.7052 18.45 99.6252 16.07H104.605C104.625 16.95 104.875 17.65 105.355 18.17C105.835 18.67 106.535 18.92 107.455 18.92C108.235 18.92 108.835 18.7 109.255 18.26C109.695 17.8 109.915 17.2 109.915 16.46C109.915 15.5 109.605 14.81 108.985 14.39C108.385 13.95 107.415 13.73 106.075 13.73H105.115V9.56H106.075C107.095 9.56 107.915 9.39 108.535 9.05C109.175 8.69 109.495 8.06 109.495 7.16C109.495 6.44 109.295 5.88 108.895 5.48C108.495 5.08 107.945 4.88 107.245 4.88C106.485 4.88 105.915 5.11 105.535 5.57C105.175 6.03 104.965 6.6 104.905 7.28H99.8952ZM120.789 23.24C119.889 23.24 119.149 22.98 118.569 22.46C118.009 21.92 117.729 21.26 117.729 20.48C117.729 19.68 118.009 19.01 118.569 18.47C119.149 17.93 119.889 17.66 120.789 17.66C121.669 17.66 122.389 17.93 122.949 18.47C123.529 19.01 123.819 19.68 123.819 20.48C123.819 21.26 123.529 21.92 122.949 22.46C122.389 22.98 121.669 23.24 120.789 23.24ZM126.346 11.75C126.346 8.31 127.006 5.6 128.326 3.62C129.666 1.64 131.816 0.649998 134.776 0.649998C137.736 0.649998 139.876 1.64 141.196 3.62C142.536 5.6 143.206 8.31 143.206 11.75C143.206 15.23 142.536 17.96 141.196 19.94C139.876 21.92 137.736 22.91 134.776 22.91C131.816 22.91 129.666 21.92 128.326 19.94C127.006 17.96 126.346 15.23 126.346 11.75ZM138.166 11.75C138.166 9.73 137.946 8.18 137.506 7.1C137.066 6 136.156 5.45 134.776 5.45C133.396 5.45 132.486 6 132.046 7.1C131.606 8.18 131.386 9.73 131.386 11.75C131.386 13.11 131.466 14.24 131.626 15.14C131.786 16.02 132.106 16.74 132.586 17.3C133.086 17.84 133.816 18.11 134.776 18.11C135.736 18.11 136.456 17.84 136.936 17.3C137.436 16.74 137.766 16.02 137.926 15.14C138.086 14.24 138.166 13.11 138.166 11.75Z" fill="#FAFAFA"/>
</svg>
